solid OpenSCAD_Model
  facet normal 0.406738 -0.913545 0
    outer loop
      vertex 103.541 42.9366 5
      vertex 115 48.0385 6
      vertex 103.541 42.9366 6
    endloop
  endfacet
  facet normal 0.406738 -0.913545 0
    outer loop
      vertex 115 48.0385 6
      vertex 103.541 42.9366 5
      vertex 115 48.0385 5
    endloop
  endfacet
  facet normal 0.20791 -0.978148 0
    outer loop
      vertex 91.2717 40.3287 5
      vertex 103.541 42.9366 6
      vertex 91.2717 40.3287 6
    endloop
  endfacet
  facet normal 0.20791 -0.978148 0
    outer loop
      vertex 103.541 42.9366 6
      vertex 91.2717 40.3287 5
      vertex 103.541 42.9366 5
    endloop
  endfacet
  facet normal 0 0 1
    outer loop
      vertex 170 40.4382 5
      vertex 166.347 22.7091 5
      vertex 170 20.6002 5
    endloop
  endfacet
  facet normal -0 0 1
    outer loop
      vertex 161.638 40.4382 5
      vertex 166.347 22.7091 5
      vertex 170 40.4382 5
    endloop
  endfacet
  facet normal 0 0 1
    outer loop
      vertex 145.279 43.9155 5
      vertex 166.347 22.7091 5
      vertex 161.638 40.4382 5
    endloop
  endfacet
  facet normal 0 0 1
    outer loop
      vertex 126.582 35.6295 5
      vertex 145.279 43.9155 5
      vertex 130 50.718 5
    endloop
  endfacet
  facet normal 0 0 1
    outer loop
      vertex 145.279 43.9155 5
      vertex 126.582 35.6295 5
      vertex 166.347 22.7091 5
    endloop
  endfacet
  facet normal 0 0 1
    outer loop
      vertex 115 48.0385 5
      vertex 130 50.718 5
      vertex 124.344 54.8273 5
    endloop
  endfacet
  facet normal 0 0 1
    outer loop
      vertex 130 50.718 5
      vertex 115 48.0385 5
      vertex 126.582 35.6295 5
    endloop
  endfacet
  facet normal -0 0 1
    outer loop
      vertex 103.541 42.9366 5
      vertex 126.582 35.6295 5
      vertex 115 48.0385 5
    endloop
  endfacet
  facet normal -0 0 1
    outer loop
      vertex 91.2717 40.3287 5
      vertex 126.582 35.6295 5
      vertex 103.541 42.9366 5
    endloop
  endfacet
  facet normal 0 0 1
    outer loop
      vertex 91.2717 40.3287 5
      vertex 85 40 5
      vertex 126.582 35.6295 5
    endloop
  endfacet
  facet normal -0 0 1
    outer loop
      vertex 78.7283 40.3287 5
      vertex 85 40 5
      vertex 91.2717 40.3287 5
    endloop
  endfacet
  facet normal 0 0 1
    outer loop
      vertex 78.7283 40.3287 5
      vertex 43.4177 35.6295 5
      vertex 85 40 5
    endloop
  endfacet
  facet normal 0 0 1
    outer loop
      vertex 66.459 42.9366 5
      vertex 43.4177 35.6295 5
      vertex 78.7283 40.3287 5
    endloop
  endfacet
  facet normal 0 0 1
    outer loop
      vertex 55 48.0385 5
      vertex 43.4177 35.6295 5
      vertex 66.459 42.9366 5
    endloop
  endfacet
  facet normal -0 0 1
    outer loop
      vertex 40 50.718 5
      vertex 55 48.0385 5
      vertex 45.656 54.8273 5
    endloop
  endfacet
  facet normal 0 0 1
    outer loop
      vertex 55 48.0385 5
      vertex 40 50.718 5
      vertex 43.4177 35.6295 5
    endloop
  endfacet
  facet normal -0 0 1
    outer loop
      vertex 24.7214 43.9155 5
      vertex 43.4177 35.6295 5
      vertex 40 50.718 5
    endloop
  endfacet
  facet normal 0 0 1
    outer loop
      vertex 3.65268 22.7091 5
      vertex 24.7214 43.9155 5
      vertex 8.36228 40.4382 5
    endloop
  endfacet
  facet normal 0 0 1
    outer loop
      vertex 24.7214 43.9155 5
      vertex 3.65268 22.7091 5
      vertex 43.4177 35.6295 5
    endloop
  endfacet
  facet normal -0 0 1
    outer loop
      vertex 0 40.4382 5
      vertex 3.65268 22.7091 5
      vertex 8.36228 40.4382 5
    endloop
  endfacet
  facet normal 0 0 1
    outer loop
      vertex 3.65268 22.7091 5
      vertex 0 40.4382 5
      vertex 0 20.6002 5
    endloop
  endfacet
  facet normal 0 0 1
    outer loop
      vertex 161.873 12.6601 5
      vertex 170 0 5
      vertex 170 7.96808 5
    endloop
  endfacet
  facet normal 0 0 1
    outer loop
      vertex 124.295 24.8699 5
      vertex 170 0 5
      vertex 161.873 12.6601 5
    endloop
  endfacet
  facet normal 0 0 1
    outer loop
      vertex 85 29 5
      vertex 170 0 5
      vertex 124.295 24.8699 5
    endloop
  endfacet
  facet normal 0 0 1
    outer loop
      vertex 0 0 5
      vertex 85 29 5
      vertex 45.7047 24.8699 5
    endloop
  endfacet
  facet normal 0 0 1
    outer loop
      vertex 0 0 5
      vertex 45.7047 24.8699 5
      vertex 8.12678 12.6601 5
    endloop
  endfacet
  facet normal 0 0 1
    outer loop
      vertex 0 0 5
      vertex 8.12678 12.6601 5
      vertex 0 7.96809 5
    endloop
  endfacet
  facet normal 0 0 1
    outer loop
      vertex 85 29 5
      vertex 0 0 5
      vertex 170 0 5
    endloop
  endfacet
  facet normal 0 -1 0
    outer loop
      vertex 78.7283 40.3287 5
      vertex 91.2717 40.3287 6
      vertex 78.7283 40.3287 6
    endloop
  endfacet
  facet normal 0 -1 -0
    outer loop
      vertex 91.2717 40.3287 6
      vertex 78.7283 40.3287 5
      vertex 91.2717 40.3287 5
    endloop
  endfacet
  facet normal -0.20791 -0.978148 0
    outer loop
      vertex 66.459 42.9366 5
      vertex 78.7283 40.3287 6
      vertex 66.459 42.9366 6
    endloop
  endfacet
  facet normal -0.20791 -0.978148 -0
    outer loop
      vertex 78.7283 40.3287 6
      vertex 66.459 42.9366 5
      vertex 78.7283 40.3287 5
    endloop
  endfacet
  facet normal -0 0 1
    outer loop
      vertex 161.847 42.4273 6
      vertex 170 40.4382 6
      vertex 170 42.4273 6
    endloop
  endfacet
  facet normal 0 0 1
    outer loop
      vertex 161.847 42.4273 6
      vertex 161.638 40.4382 6
      vertex 170 40.4382 6
    endloop
  endfacet
  facet normal 0 0 1
    outer loop
      vertex 145.897 45.8176 6
      vertex 161.638 40.4382 6
      vertex 161.847 42.4273 6
    endloop
  endfacet
  facet normal 0 0 1
    outer loop
      vertex 145.897 45.8176 6
      vertex 145.279 43.9155 6
      vertex 161.638 40.4382 6
    endloop
  endfacet
  facet normal 0 0 1
    outer loop
      vertex 131 52.45 6
      vertex 145.279 43.9155 6
      vertex 145.897 45.8176 6
    endloop
  endfacet
  facet normal 0 0 1
    outer loop
      vertex 131 52.45 6
      vertex 130 50.718 6
      vertex 145.279 43.9155 6
    endloop
  endfacet
  facet normal 0 0 1
    outer loop
      vertex 131 52.45 6
      vertex 124.344 54.8273 6
      vertex 130 50.718 6
    endloop
  endfacet
  facet normal 0 0 1
    outer loop
      vertex 124.232 57.3671 6
      vertex 124.344 54.8273 6
      vertex 131 52.45 6
    endloop
  endfacet
  facet normal -0 0 1
    outer loop
      vertex 123.81 56.8976 6
      vertex 124.344 54.8273 6
      vertex 124.232 57.3671 6
    endloop
  endfacet
  facet normal 0 0 1
    outer loop
      vertex 114 49.7705 6
      vertex 124.344 54.8273 6
      vertex 123.81 56.8976 6
    endloop
  endfacet
  facet normal 0 0 1
    outer loop
      vertex 124.344 54.8273 6
      vertex 114 49.7705 6
      vertex 115 48.0385 6
    endloop
  endfacet
  facet normal 0 0 1
    outer loop
      vertex 114 49.7705 6
      vertex 103.541 42.9366 6
      vertex 115 48.0385 6
    endloop
  endfacet
  facet normal -0 0 1
    outer loop
      vertex 102.923 44.8387 6
      vertex 103.541 42.9366 6
      vertex 114 49.7705 6
    endloop
  endfacet
  facet normal 0 0 1
    outer loop
      vertex 102.923 44.8387 6
      vertex 91.2717 40.3287 6
      vertex 103.541 42.9366 6
    endloop
  endfacet
  facet normal -0 0 1
    outer loop
      vertex 91.0627 42.3177 6
      vertex 91.2717 40.3287 6
      vertex 102.923 44.8387 6
    endloop
  endfacet
  facet normal -0 0 1
    outer loop
      vertex 78.9373 42.3177 6
      vertex 91.2717 40.3287 6
      vertex 91.0627 42.3177 6
    endloop
  endfacet
  facet normal 0 0 1
    outer loop
      vertex 78.9373 42.3177 6
      vertex 78.7283 40.3287 6
      vertex 91.2717 40.3287 6
    endloop
  endfacet
  facet normal 0 0 1
    outer loop
      vertex 67.077 44.8387 6
      vertex 78.7283 40.3287 6
      vertex 78.9373 42.3177 6
    endloop
  endfacet
  facet normal 0 0 1
    outer loop
      vertex 67.077 44.8387 6
      vertex 66.459 42.9366 6
      vertex 78.7283 40.3287 6
    endloop
  endfacet
  facet normal 0 0 1
    outer loop
      vertex 56 49.7705 6
      vertex 66.459 42.9366 6
      vertex 67.077 44.8387 6
    endloop
  endfacet
  facet normal 0 0 1
    outer loop
      vertex 56 49.7705 6
      vertex 55 48.0385 6
      vertex 66.459 42.9366 6
    endloop
  endfacet
  facet normal -0 0 1
    outer loop
      vertex 45.656 54.8273 6
      vertex 56 49.7705 6
      vertex 46.1904 56.8976 6
    endloop
  endfacet
  facet normal 0 0 1
    outer loop
      vertex 56 49.7705 6
      vertex 45.656 54.8273 6
      vertex 55 48.0385 6
    endloop
  endfacet
  facet normal 0 0 1
    outer loop
      vertex 45.7677 57.3671 6
      vertex 45.656 54.8273 6
      vertex 46.1904 56.8976 6
    endloop
  endfacet
  facet normal 0 0 1
    outer loop
      vertex 39 52.45 6
      vertex 45.656 54.8273 6
      vertex 45.7677 57.3671 6
    endloop
  endfacet
  facet normal 0 0 1
    outer loop
      vertex 45.656 54.8273 6
      vertex 39 52.45 6
      vertex 40 50.718 6
    endloop
  endfacet
  facet normal 0 0 1
    outer loop
      vertex 39 52.45 6
      vertex 24.7214 43.9155 6
      vertex 40 50.718 6
    endloop
  endfacet
  facet normal -0 0 1
    outer loop
      vertex 24.1033 45.8176 6
      vertex 24.7214 43.9155 6
      vertex 39 52.45 6
    endloop
  endfacet
  facet normal 0 0 1
    outer loop
      vertex 24.1033 45.8176 6
      vertex 8.36228 40.4382 6
      vertex 24.7214 43.9155 6
    endloop
  endfacet
  facet normal -0 0 1
    outer loop
      vertex 8.15322 42.4273 6
      vertex 8.36228 40.4382 6
      vertex 24.1033 45.8176 6
    endloop
  endfacet
  facet normal 0 0 1
    outer loop
      vertex 0 40.4382 6
      vertex 8.15322 42.4273 6
      vertex 0 42.4273 6
    endloop
  endfacet
  facet normal 0 0 1
    outer loop
      vertex 8.15322 42.4273 6
      vertex 0 40.4382 6
      vertex 8.36228 40.4382 6
    endloop
  endfacet
  facet normal 0.587784 -0.809018 0
    outer loop
      vertex 115 48.0385 5
      vertex 124.344 54.8273 6
      vertex 115 48.0385 6
    endloop
  endfacet
  facet normal 0.587784 -0.809018 0
    outer loop
      vertex 124.344 54.8273 6
      vertex 115 48.0385 5
      vertex 124.344 54.8273 5
    endloop
  endfacet
  facet normal -0.406738 -0.913545 0
    outer loop
      vertex 55 48.0385 5
      vertex 66.459 42.9366 6
      vertex 55 48.0385 6
    endloop
  endfacet
  facet normal -0.406738 -0.913545 -0
    outer loop
      vertex 66.459 42.9366 6
      vertex 55 48.0385 5
      vertex 66.459 42.9366 5
    endloop
  endfacet
  facet normal -0.587784 -0.809018 0
    outer loop
      vertex 45.656 54.8273 5
      vertex 55 48.0385 6
      vertex 45.656 54.8273 6
    endloop
  endfacet
  facet normal -0.587784 -0.809018 -0
    outer loop
      vertex 55 48.0385 6
      vertex 45.656 54.8273 5
      vertex 55 48.0385 5
    endloop
  endfacet
  facet normal 0.587783 -0.809019 0
    outer loop
      vertex 40 50.718 5
      vertex 45.656 54.8273 6
      vertex 40 50.718 6
    endloop
  endfacet
  facet normal 0.587783 -0.809019 0
    outer loop
      vertex 45.656 54.8273 6
      vertex 40 50.718 5
      vertex 45.656 54.8273 5
    endloop
  endfacet
  facet normal 0 -1 0
    outer loop
      vertex 0 40.4382 5
      vertex 8.36228 40.4382 6
      vertex 0 40.4382 6
    endloop
  endfacet
  facet normal 0 -1 -0
    outer loop
      vertex 8.36228 40.4382 6
      vertex 0 40.4382 5
      vertex 8.36228 40.4382 5
    endloop
  endfacet
  facet normal 0.207915 -0.978147 0
    outer loop
      vertex 8.36228 40.4382 5
      vertex 24.7214 43.9155 6
      vertex 8.36228 40.4382 6
    endloop
  endfacet
  facet normal 0.207915 -0.978147 0
    outer loop
      vertex 24.7214 43.9155 6
      vertex 8.36228 40.4382 5
      vertex 24.7214 43.9155 5
    endloop
  endfacet
  facet normal 0.406738 -0.913545 0
    outer loop
      vertex 24.7214 43.9155 5
      vertex 40 50.718 6
      vertex 24.7214 43.9155 6
    endloop
  endfacet
  facet normal 0.406738 -0.913545 0
    outer loop
      vertex 40 50.718 6
      vertex 24.7214 43.9155 5
      vertex 40 50.718 5
    endloop
  endfacet
  facet normal -0.587783 -0.809019 0
    outer loop
      vertex 124.344 54.8273 5
      vertex 130 50.718 6
      vertex 124.344 54.8273 6
    endloop
  endfacet
  facet normal -0.587783 -0.809019 -0
    outer loop
      vertex 130 50.718 6
      vertex 124.344 54.8273 5
      vertex 130 50.718 5
    endloop
  endfacet
  facet normal 0 -1 0
    outer loop
      vertex 161.638 40.4382 5
      vertex 170 40.4382 6
      vertex 161.638 40.4382 6
    endloop
  endfacet
  facet normal 0 -1 -0
    outer loop
      vertex 170 40.4382 6
      vertex 161.638 40.4382 5
      vertex 170 40.4382 5
    endloop
  endfacet
  facet normal -0.406729 -0.913549 0
    outer loop
      vertex 130 50.718 5
      vertex 145.279 43.9155 6
      vertex 130 50.718 6
    endloop
  endfacet
  facet normal -0.406729 -0.913549 -0
    outer loop
      vertex 145.279 43.9155 6
      vertex 130 50.718 5
      vertex 145.279 43.9155 5
    endloop
  endfacet
  facet normal -0.207917 -0.978147 0
    outer loop
      vertex 145.279 43.9155 5
      vertex 161.638 40.4382 6
      vertex 145.279 43.9155 6
    endloop
  endfacet
  facet normal -0.207917 -0.978147 -0
    outer loop
      vertex 161.638 40.4382 6
      vertex 145.279 43.9155 5
      vertex 161.638 40.4382 5
    endloop
  endfacet
  facet normal 0.743727 -0.668483 0
    outer loop
      vertex 123.81 56.8976 7
      vertex 124.232 57.3671 6
      vertex 124.232 57.3671 7
    endloop
  endfacet
  facet normal 0.743727 -0.668483 0
    outer loop
      vertex 124.232 57.3671 6
      vertex 123.81 56.8976 7
      vertex 123.81 56.8976 6
    endloop
  endfacet
  facet normal 0 -1 0
    outer loop
      vertex 78.9373 42.3177 6
      vertex 91.0627 42.3177 7
      vertex 78.9373 42.3177 7
    endloop
  endfacet
  facet normal 0 -1 -0
    outer loop
      vertex 91.0627 42.3177 7
      vertex 78.9373 42.3177 6
      vertex 91.0627 42.3177 6
    endloop
  endfacet
  facet normal -0.207913 -0.978147 0
    outer loop
      vertex 67.077 44.8387 6
      vertex 78.9373 42.3177 7
      vertex 67.077 44.8387 7
    endloop
  endfacet
  facet normal -0.207913 -0.978147 -0
    outer loop
      vertex 78.9373 42.3177 7
      vertex 67.077 44.8387 6
      vertex 78.9373 42.3177 6
    endloop
  endfacet
  facet normal 0 0 1
    outer loop
      vertex 36.2393 64.5763 7
      vertex 31.9892 63.4375 7
      vertex 32.7656 60.5397 7
    endloop
  endfacet
  facet normal 0 0 1
    outer loop
      vertex 33.8415 77.2227 7
      vertex 29.0914 62.661 7
      vertex 31.9892 63.4375 7
    endloop
  endfacet
  facet normal 0 0 1
    outer loop
      vertex 33.8415 77.2227 7
      vertex 24.8413 61.5222 7
      vertex 29.0914 62.661 7
    endloop
  endfacet
  facet normal 0 0 1
    outer loop
      vertex 29.0914 62.661 7
      vertex 24.8413 61.5222 7
      vertex 25.6178 58.6245 7
    endloop
  endfacet
  facet normal 0 0 1
    outer loop
      vertex 32.9391 80 7
      vertex 21.9436 60.7458 7
      vertex 24.8413 61.5222 7
    endloop
  endfacet
  facet normal -0 0 1
    outer loop
      vertex 0 80 7
      vertex 21.9436 60.7458 7
      vertex 32.9391 80 7
    endloop
  endfacet
  facet normal 0 0 1
    outer loop
      vertex 21.9436 60.7458 7
      vertex 17.6935 59.607 7
      vertex 18.4699 56.7092 7
    endloop
  endfacet
  facet normal 0 0 1
    outer loop
      vertex 21.9436 60.7458 7
      vertex 0 80 7
      vertex 17.6935 59.607 7
    endloop
  endfacet
  facet normal 0 0 1
    outer loop
      vertex 17.6935 59.607 7
      vertex 0 80 7
      vertex 14.7957 58.8305 7
    endloop
  endfacet
  facet normal 0 0 1
    outer loop
      vertex 14.7957 58.8305 7
      vertex 10.5456 57.6917 7
      vertex 11.3221 54.7939 7
    endloop
  endfacet
  facet normal 0 0 1
    outer loop
      vertex 14.7957 58.8305 7
      vertex 0 80 7
      vertex 10.5456 57.6917 7
    endloop
  endfacet
  facet normal 0 0 1
    outer loop
      vertex 7.64785 56.9153 7
      vertex 3.39778 55.7765 7
      vertex 4.17423 52.8787 7
    endloop
  endfacet
  facet normal 0 0 1
    outer loop
      vertex 10.5456 57.6917 7
      vertex 0 80 7
      vertex 7.64785 56.9153 7
    endloop
  endfacet
  facet normal 0 0 1
    outer loop
      vertex 7.64785 56.9153 7
      vertex 0 80 7
      vertex 3.39778 55.7765 7
    endloop
  endfacet
  facet normal 0 0 1
    outer loop
      vertex 3.39778 55.7765 7
      vertex 0 80 7
      vertex 0.5 55 7
    endloop
  endfacet
  facet normal -0 0 1
    outer loop
      vertex 130.305 67.084 7
      vertex 132.898 64.2235 7
      vertex 136.159 77.2227 7
    endloop
  endfacet
  facet normal 0 0 1
    outer loop
      vertex 130.305 67.084 7
      vertex 130 65 7
      vertex 132.898 64.2235 7
    endloop
  endfacet
  facet normal 0 0 1
    outer loop
      vertex 122.471 58.3839 7
      vertex 130 65 7
      vertex 130.305 67.084 7
    endloop
  endfacet
  facet normal 0 0 1
    outer loop
      vertex 130 65 7
      vertex 122.471 58.3839 7
      vertex 129.224 62.1022 7
    endloop
  endfacet
  facet normal 0 0 1
    outer loop
      vertex 129.224 62.1022 7
      vertex 122.471 58.3839 7
      vertex 124.232 57.3671 7
    endloop
  endfacet
  facet normal 0 0 1
    outer loop
      vertex 124.232 57.3671 7
      vertex 122.471 58.3839 7
      vertex 123.81 56.8976 7
    endloop
  endfacet
  facet normal 0 0 1
    outer loop
      vertex 122.471 58.3839 7
      vertex 114 49.7705 7
      vertex 123.81 56.8976 7
    endloop
  endfacet
  facet normal -0 0 1
    outer loop
      vertex 113 51.5026 7
      vertex 114 49.7705 7
      vertex 122.471 58.3839 7
    endloop
  endfacet
  facet normal 0 0 1
    outer loop
      vertex 113 51.5026 7
      vertex 102.923 44.8387 7
      vertex 114 49.7705 7
    endloop
  endfacet
  facet normal -0 0 1
    outer loop
      vertex 102.305 46.7408 7
      vertex 102.923 44.8387 7
      vertex 113 51.5026 7
    endloop
  endfacet
  facet normal 0 0 1
    outer loop
      vertex 102.305 46.7408 7
      vertex 91.0627 42.3177 7
      vertex 102.923 44.8387 7
    endloop
  endfacet
  facet normal -0 0 1
    outer loop
      vertex 90.8536 44.3068 7
      vertex 91.0627 42.3177 7
      vertex 102.305 46.7408 7
    endloop
  endfacet
  facet normal -0 0 1
    outer loop
      vertex 79.1464 44.3068 7
      vertex 91.0627 42.3177 7
      vertex 90.8536 44.3068 7
    endloop
  endfacet
  facet normal 0 0 1
    outer loop
      vertex 79.1464 44.3068 7
      vertex 78.9373 42.3177 7
      vertex 91.0627 42.3177 7
    endloop
  endfacet
  facet normal 0 0 1
    outer loop
      vertex 67.695 46.7408 7
      vertex 78.9373 42.3177 7
      vertex 79.1464 44.3068 7
    endloop
  endfacet
  facet normal 0 0 1
    outer loop
      vertex 67.695 46.7408 7
      vertex 67.077 44.8387 7
      vertex 78.9373 42.3177 7
    endloop
  endfacet
  facet normal 0 0 1
    outer loop
      vertex 57 51.5026 7
      vertex 67.077 44.8387 7
      vertex 67.695 46.7408 7
    endloop
  endfacet
  facet normal 0 0 1
    outer loop
      vertex 57 51.5026 7
      vertex 56 49.7705 7
      vertex 67.077 44.8387 7
    endloop
  endfacet
  facet normal 0 0 1
    outer loop
      vertex 47.5287 58.3839 7
      vertex 56 49.7705 7
      vertex 57 51.5026 7
    endloop
  endfacet
  facet normal 0 0 1
    outer loop
      vertex 47.5287 58.3839 7
      vertex 46.1904 56.8976 7
      vertex 56 49.7705 7
    endloop
  endfacet
  facet normal 0 0 1
    outer loop
      vertex 47.5287 58.3839 7
      vertex 45.7677 57.3671 7
      vertex 46.1904 56.8976 7
    endloop
  endfacet
  facet normal 0 0 1
    outer loop
      vertex 47.5287 58.3839 7
      vertex 39.9135 62.455 7
      vertex 45.7677 57.3671 7
    endloop
  endfacet
  facet normal 0 0 1
    outer loop
      vertex 39.695 67.084 7
      vertex 39.9135 62.455 7
      vertex 47.5287 58.3839 7
    endloop
  endfacet
  facet normal 0 0 1
    outer loop
      vertex 39.695 67.084 7
      vertex 39.137 65.3528 7
      vertex 39.9135 62.455 7
    endloop
  endfacet
  facet normal 0 0 1
    outer loop
      vertex 39.695 67.084 7
      vertex 36.2393 64.5763 7
      vertex 39.137 65.3528 7
    endloop
  endfacet
  facet normal 0 -0 1
    outer loop
      vertex 36.2393 64.5763 7
      vertex 39.695 67.084 7
      vertex 33.8415 77.2227 7
    endloop
  endfacet
  facet normal 0 0 1
    outer loop
      vertex 39.9135 62.455 7
      vertex 39 52.45 7
      vertex 45.7677 57.3671 7
    endloop
  endfacet
  facet normal -0 0 1
    outer loop
      vertex 37.0157 61.6785 7
      vertex 39 52.45 7
      vertex 39.9135 62.455 7
    endloop
  endfacet
  facet normal 0 0 1
    outer loop
      vertex 32.7656 60.5397 7
      vertex 37.0157 61.6785 7
      vertex 36.2393 64.5763 7
    endloop
  endfacet
  facet normal 0 0 1
    outer loop
      vertex 24.8413 61.5222 7
      vertex 33.8415 77.2227 7
      vertex 32.9391 80 7
    endloop
  endfacet
  facet normal 0 0 1
    outer loop
      vertex 31.9892 63.4375 7
      vertex 36.2393 64.5763 7
      vertex 33.8415 77.2227 7
    endloop
  endfacet
  facet normal 0 0 1
    outer loop
      vertex 37.0157 61.6785 7
      vertex 32.7656 60.5397 7
      vertex 39 52.45 7
    endloop
  endfacet
  facet normal -0 0 1
    outer loop
      vertex 29.8679 59.7633 7
      vertex 39 52.45 7
      vertex 32.7656 60.5397 7
    endloop
  endfacet
  facet normal 0 0 1
    outer loop
      vertex 25.6178 58.6245 7
      vertex 29.8679 59.7633 7
      vertex 29.0914 62.661 7
    endloop
  endfacet
  facet normal 0 0 1
    outer loop
      vertex 24.1033 45.8176 7
      vertex 29.8679 59.7633 7
      vertex 25.6178 58.6245 7
    endloop
  endfacet
  facet normal 0 0 1
    outer loop
      vertex 29.8679 59.7633 7
      vertex 24.1033 45.8176 7
      vertex 39 52.45 7
    endloop
  endfacet
  facet normal -0 0 1
    outer loop
      vertex 22.72 57.848 7
      vertex 24.1033 45.8176 7
      vertex 25.6178 58.6245 7
    endloop
  endfacet
  facet normal 0 0 1
    outer loop
      vertex 18.4699 56.7092 7
      vertex 22.72 57.848 7
      vertex 21.9436 60.7458 7
    endloop
  endfacet
  facet normal 0 0 1
    outer loop
      vertex 22.72 57.848 7
      vertex 18.4699 56.7092 7
      vertex 24.1033 45.8176 7
    endloop
  endfacet
  facet normal -0 0 1
    outer loop
      vertex 15.5722 55.9327 7
      vertex 24.1033 45.8176 7
      vertex 18.4699 56.7092 7
    endloop
  endfacet
  facet normal 0 0 1
    outer loop
      vertex 11.3221 54.7939 7
      vertex 15.5722 55.9327 7
      vertex 14.7957 58.8305 7
    endloop
  endfacet
  facet normal -0 0 1
    outer loop
      vertex 11.3221 54.7939 7
      vertex 24.1033 45.8176 7
      vertex 15.5722 55.9327 7
    endloop
  endfacet
  facet normal 0 0 1
    outer loop
      vertex 8.15322 42.4273 7
      vertex 11.3221 54.7939 7
      vertex 8.42431 54.0175 7
    endloop
  endfacet
  facet normal 0 0 1
    outer loop
      vertex 11.3221 54.7939 7
      vertex 8.15322 42.4273 7
      vertex 24.1033 45.8176 7
    endloop
  endfacet
  facet normal 0 0 1
    outer loop
      vertex 4.17423 52.8787 7
      vertex 8.42431 54.0175 7
      vertex 7.64785 56.9153 7
    endloop
  endfacet
  facet normal 0 0 1
    outer loop
      vertex 8.42431 54.0175 7
      vertex 4.17423 52.8787 7
      vertex 8.15322 42.4273 7
    endloop
  endfacet
  facet normal -0 0 1
    outer loop
      vertex 1.27646 52.1022 7
      vertex 8.15322 42.4273 7
      vertex 4.17423 52.8787 7
    endloop
  endfacet
  facet normal 0 0 1
    outer loop
      vertex 1.27646 52.1022 7
      vertex 0 42.4273 7
      vertex 8.15322 42.4273 7
    endloop
  endfacet
  facet normal 0 0 1
    outer loop
      vertex 0.5 55 7
      vertex 0 42.4273 7
      vertex 1.27646 52.1022 7
    endloop
  endfacet
  facet normal 0 0 1
    outer loop
      vertex 0 42.4273 7
      vertex 0.5 55 7
      vertex 0 80 7
    endloop
  endfacet
  facet normal 0 0 1
    outer loop
      vertex 170 80 7
      vertex 168.637 54.6472 7
      vertex 170 42.4273 7
    endloop
  endfacet
  facet normal 0 0 1
    outer loop
      vertex 170 80 7
      vertex 165.739 55.4237 7
      vertex 168.637 54.6472 7
    endloop
  endfacet
  facet normal -0 0 1
    outer loop
      vertex 161.489 56.5625 7
      vertex 165.739 55.4237 7
      vertex 170 80 7
    endloop
  endfacet
  facet normal 0 0 1
    outer loop
      vertex 165.739 55.4237 7
      vertex 161.489 56.5625 7
      vertex 164.963 52.5259 7
    endloop
  endfacet
  facet normal -0 0 1
    outer loop
      vertex 160.713 53.6647 7
      vertex 164.963 52.5259 7
      vertex 161.489 56.5625 7
    endloop
  endfacet
  facet normal 0 0 1
    outer loop
      vertex 170 80 7
      vertex 158.591 57.339 7
      vertex 161.489 56.5625 7
    endloop
  endfacet
  facet normal 0 0 1
    outer loop
      vertex 158.591 57.339 7
      vertex 154.341 58.4778 7
      vertex 157.815 54.4412 7
    endloop
  endfacet
  facet normal 0 0 1
    outer loop
      vertex 170 80 7
      vertex 154.341 58.4778 7
      vertex 158.591 57.339 7
    endloop
  endfacet
  facet normal 0 0 1
    outer loop
      vertex 170 80 7
      vertex 151.444 59.2542 7
      vertex 154.341 58.4778 7
    endloop
  endfacet
  facet normal 0 0 1
    outer loop
      vertex 151.444 59.2542 7
      vertex 147.193 60.393 7
      vertex 150.667 56.3564 7
    endloop
  endfacet
  facet normal 0 0 1
    outer loop
      vertex 170 80 7
      vertex 147.193 60.393 7
      vertex 151.444 59.2542 7
    endloop
  endfacet
  facet normal -0 0 1
    outer loop
      vertex 137.061 80 7
      vertex 147.193 60.393 7
      vertex 170 80 7
    endloop
  endfacet
  facet normal 0 0 1
    outer loop
      vertex 144.296 61.1695 7
      vertex 140.046 62.3083 7
      vertex 143.519 58.2717 7
    endloop
  endfacet
  facet normal -0 0 1
    outer loop
      vertex 136.159 77.2227 7
      vertex 147.193 60.393 7
      vertex 137.061 80 7
    endloop
  endfacet
  facet normal 0 0 1
    outer loop
      vertex 147.193 60.393 7
      vertex 136.159 77.2227 7
      vertex 144.296 61.1695 7
    endloop
  endfacet
  facet normal 0 0 1
    outer loop
      vertex 144.296 61.1695 7
      vertex 136.159 77.2227 7
      vertex 140.046 62.3083 7
    endloop
  endfacet
  facet normal 0 0 1
    outer loop
      vertex 140.046 62.3083 7
      vertex 136.159 77.2227 7
      vertex 137.148 63.0847 7
    endloop
  endfacet
  facet normal -0 0 1
    outer loop
      vertex 132.898 64.2235 7
      vertex 137.148 63.0847 7
      vertex 136.159 77.2227 7
    endloop
  endfacet
  facet normal -0 0 1
    outer loop
      vertex 167.861 51.7495 7
      vertex 170 42.4273 7
      vertex 168.637 54.6472 7
    endloop
  endfacet
  facet normal 0 0 1
    outer loop
      vertex 161.847 42.4273 7
      vertex 167.861 51.7495 7
      vertex 164.963 52.5259 7
    endloop
  endfacet
  facet normal 0 0 1
    outer loop
      vertex 167.861 51.7495 7
      vertex 161.847 42.4273 7
      vertex 170 42.4273 7
    endloop
  endfacet
  facet normal 0 0 1
    outer loop
      vertex 164.963 52.5259 7
      vertex 160.713 53.6647 7
      vertex 161.847 42.4273 7
    endloop
  endfacet
  facet normal 0 0 1
    outer loop
      vertex 157.815 54.4412 7
      vertex 161.847 42.4273 7
      vertex 160.713 53.6647 7
    endloop
  endfacet
  facet normal -0 0 1
    outer loop
      vertex 153.565 55.58 7
      vertex 157.815 54.4412 7
      vertex 154.341 58.4778 7
    endloop
  endfacet
  facet normal 0 0 1
    outer loop
      vertex 145.897 45.8176 7
      vertex 157.815 54.4412 7
      vertex 153.565 55.58 7
    endloop
  endfacet
  facet normal 0 0 1
    outer loop
      vertex 145.897 45.8176 7
      vertex 153.565 55.58 7
      vertex 150.667 56.3564 7
    endloop
  endfacet
  facet normal -0 0 1
    outer loop
      vertex 146.417 57.4952 7
      vertex 150.667 56.3564 7
      vertex 147.193 60.393 7
    endloop
  endfacet
  facet normal 0 0 1
    outer loop
      vertex 145.897 45.8176 7
      vertex 150.667 56.3564 7
      vertex 146.417 57.4952 7
    endloop
  endfacet
  facet normal 0 0 1
    outer loop
      vertex 157.815 54.4412 7
      vertex 145.897 45.8176 7
      vertex 161.847 42.4273 7
    endloop
  endfacet
  facet normal 0 0 1
    outer loop
      vertex 143.519 58.2717 7
      vertex 145.897 45.8176 7
      vertex 146.417 57.4952 7
    endloop
  endfacet
  facet normal -0 0 1
    outer loop
      vertex 139.269 59.4105 7
      vertex 143.519 58.2717 7
      vertex 140.046 62.3083 7
    endloop
  endfacet
  facet normal 0 0 1
    outer loop
      vertex 143.519 58.2717 7
      vertex 139.269 59.4105 7
      vertex 145.897 45.8176 7
    endloop
  endfacet
  facet normal 0 0 1
    outer loop
      vertex 131 52.45 7
      vertex 139.269 59.4105 7
      vertex 136.371 60.187 7
    endloop
  endfacet
  facet normal 0 0 1
    outer loop
      vertex 137.148 63.0847 7
      vertex 132.898 64.2235 7
      vertex 136.371 60.187 7
    endloop
  endfacet
  facet normal -0 0 1
    outer loop
      vertex 132.121 61.3258 7
      vertex 136.371 60.187 7
      vertex 132.898 64.2235 7
    endloop
  endfacet
  facet normal 0 0 1
    outer loop
      vertex 131 52.45 7
      vertex 136.371 60.187 7
      vertex 132.121 61.3258 7
    endloop
  endfacet
  facet normal 0 0 1
    outer loop
      vertex 139.269 59.4105 7
      vertex 131 52.45 7
      vertex 145.897 45.8176 7
    endloop
  endfacet
  facet normal 0 0 1
    outer loop
      vertex 129.224 62.1022 7
      vertex 131 52.45 7
      vertex 132.121 61.3258 7
    endloop
  endfacet
  facet normal 0 0 1
    outer loop
      vertex 131 52.45 7
      vertex 129.224 62.1022 7
      vertex 124.232 57.3671 7
    endloop
  endfacet
  facet normal 0 0 1
    outer loop
      vertex 158.591 57.339 7
      vertex 160.713 53.6647 7
      vertex 161.489 56.5625 7
    endloop
  endfacet
  facet normal 0 0 1
    outer loop
      vertex 160.713 53.6647 7
      vertex 158.591 57.339 7
      vertex 157.815 54.4412 7
    endloop
  endfacet
  facet normal 0 0 1
    outer loop
      vertex 151.444 59.2542 7
      vertex 153.565 55.58 7
      vertex 154.341 58.4778 7
    endloop
  endfacet
  facet normal 0 0 1
    outer loop
      vertex 153.565 55.58 7
      vertex 151.444 59.2542 7
      vertex 150.667 56.3564 7
    endloop
  endfacet
  facet normal 0 0 1
    outer loop
      vertex 144.296 61.1695 7
      vertex 146.417 57.4952 7
      vertex 147.193 60.393 7
    endloop
  endfacet
  facet normal 0 0 1
    outer loop
      vertex 146.417 57.4952 7
      vertex 144.296 61.1695 7
      vertex 143.519 58.2717 7
    endloop
  endfacet
  facet normal 0 0 1
    outer loop
      vertex 137.148 63.0847 7
      vertex 139.269 59.4105 7
      vertex 140.046 62.3083 7
    endloop
  endfacet
  facet normal 0 0 1
    outer loop
      vertex 139.269 59.4105 7
      vertex 137.148 63.0847 7
      vertex 136.371 60.187 7
    endloop
  endfacet
  facet normal 0 0 1
    outer loop
      vertex 31.9892 63.4375 7
      vertex 29.8679 59.7633 7
      vertex 32.7656 60.5397 7
    endloop
  endfacet
  facet normal 0 -0 1
    outer loop
      vertex 29.8679 59.7633 7
      vertex 31.9892 63.4375 7
      vertex 29.0914 62.661 7
    endloop
  endfacet
  facet normal 0 0 1
    outer loop
      vertex 24.8413 61.5222 7
      vertex 22.72 57.848 7
      vertex 25.6178 58.6245 7
    endloop
  endfacet
  facet normal 0 -0 1
    outer loop
      vertex 22.72 57.848 7
      vertex 24.8413 61.5222 7
      vertex 21.9436 60.7458 7
    endloop
  endfacet
  facet normal 0 0 1
    outer loop
      vertex 17.6935 59.607 7
      vertex 15.5722 55.9327 7
      vertex 18.4699 56.7092 7
    endloop
  endfacet
  facet normal 0 -0 1
    outer loop
      vertex 15.5722 55.9327 7
      vertex 17.6935 59.607 7
      vertex 14.7957 58.8305 7
    endloop
  endfacet
  facet normal 0 0 1
    outer loop
      vertex 10.5456 57.6917 7
      vertex 8.42431 54.0175 7
      vertex 11.3221 54.7939 7
    endloop
  endfacet
  facet normal 0 -0 1
    outer loop
      vertex 8.42431 54.0175 7
      vertex 10.5456 57.6917 7
      vertex 7.64785 56.9153 7
    endloop
  endfacet
  facet normal 0.207913 -0.978147 0
    outer loop
      vertex 91.0627 42.3177 6
      vertex 102.923 44.8387 7
      vertex 91.0627 42.3177 7
    endloop
  endfacet
  facet normal 0.207913 -0.978147 0
    outer loop
      vertex 102.923 44.8387 7
      vertex 91.0627 42.3177 6
      vertex 102.923 44.8387 6
    endloop
  endfacet
  facet normal 0.58777 -0.809028 0
    outer loop
      vertex 114 49.7705 6
      vertex 123.81 56.8976 7
      vertex 114 49.7705 7
    endloop
  endfacet
  facet normal 0.58777 -0.809028 0
    outer loop
      vertex 123.81 56.8976 7
      vertex 114 49.7705 6
      vertex 123.81 56.8976 6
    endloop
  endfacet
  facet normal -0.406737 -0.913545 0
    outer loop
      vertex 56 49.7705 6
      vertex 67.077 44.8387 7
      vertex 56 49.7705 7
    endloop
  endfacet
  facet normal -0.406737 -0.913545 -0
    outer loop
      vertex 67.077 44.8387 7
      vertex 56 49.7705 6
      vertex 67.077 44.8387 6
    endloop
  endfacet
  facet normal -0.743176 -0.669096 0
    outer loop
      vertex 46.1904 56.8976 6
      vertex 45.7677 57.3671 7
      vertex 45.7677 57.3671 6
    endloop
  endfacet
  facet normal -0.743176 -0.669096 0
    outer loop
      vertex 45.7677 57.3671 7
      vertex 46.1904 56.8976 6
      vertex 46.1904 56.8976 7
    endloop
  endfacet
  facet normal -0.587786 -0.809017 0
    outer loop
      vertex 46.1904 56.8976 6
      vertex 56 49.7705 7
      vertex 46.1904 56.8976 7
    endloop
  endfacet
  facet normal -0.587786 -0.809017 -0
    outer loop
      vertex 56 49.7705 7
      vertex 46.1904 56.8976 6
      vertex 56 49.7705 6
    endloop
  endfacet
  facet normal 0.406737 -0.913545 0
    outer loop
      vertex 102.923 44.8387 6
      vertex 114 49.7705 7
      vertex 102.923 44.8387 7
    endloop
  endfacet
  facet normal 0.406737 -0.913545 0
    outer loop
      vertex 114 49.7705 7
      vertex 102.923 44.8387 6
      vertex 114 49.7705 6
    endloop
  endfacet
  facet normal 0.207912 -0.978148 0
    outer loop
      vertex 8.15322 42.4273 6
      vertex 24.1033 45.8176 7
      vertex 8.15322 42.4273 7
    endloop
  endfacet
  facet normal 0.207912 -0.978148 0
    outer loop
      vertex 24.1033 45.8176 7
      vertex 8.15322 42.4273 6
      vertex 24.1033 45.8176 6
    endloop
  endfacet
  facet normal 0.406735 -0.913546 0
    outer loop
      vertex 24.1033 45.8176 6
      vertex 39 52.45 7
      vertex 24.1033 45.8176 7
    endloop
  endfacet
  facet normal 0.406735 -0.913546 0
    outer loop
      vertex 39 52.45 7
      vertex 24.1033 45.8176 6
      vertex 39 52.45 6
    endloop
  endfacet
  facet normal 0.587791 -0.809013 0
    outer loop
      vertex 39 52.45 6
      vertex 45.7677 57.3671 7
      vertex 39 52.45 7
    endloop
  endfacet
  facet normal 0.587791 -0.809013 0
    outer loop
      vertex 45.7677 57.3671 7
      vertex 39 52.45 6
      vertex 45.7677 57.3671 6
    endloop
  endfacet
  facet normal 0 -1 0
    outer loop
      vertex 0 42.4273 6
      vertex 8.15322 42.4273 7
      vertex 0 42.4273 7
    endloop
  endfacet
  facet normal 0 -1 -0
    outer loop
      vertex 8.15322 42.4273 7
      vertex 0 42.4273 6
      vertex 8.15322 42.4273 6
    endloop
  endfacet
  facet normal -0.406728 -0.913549 0
    outer loop
      vertex 131 52.45 6
      vertex 145.897 45.8176 7
      vertex 131 52.45 7
    endloop
  endfacet
  facet normal -0.406728 -0.913549 -0
    outer loop
      vertex 145.897 45.8176 7
      vertex 131 52.45 6
      vertex 145.897 45.8176 6
    endloop
  endfacet
  facet normal -0.587774 -0.809025 0
    outer loop
      vertex 124.232 57.3671 6
      vertex 131 52.45 7
      vertex 124.232 57.3671 7
    endloop
  endfacet
  facet normal -0.587774 -0.809025 -0
    outer loop
      vertex 131 52.45 7
      vertex 124.232 57.3671 6
      vertex 131 52.45 6
    endloop
  endfacet
  facet normal 0 -1 0
    outer loop
      vertex 161.847 42.4273 6
      vertex 170 42.4273 7
      vertex 161.847 42.4273 7
    endloop
  endfacet
  facet normal 0 -1 -0
    outer loop
      vertex 170 42.4273 7
      vertex 161.847 42.4273 6
      vertex 170 42.4273 6
    endloop
  endfacet
  facet normal -0.207913 -0.978147 0
    outer loop
      vertex 145.897 45.8176 6
      vertex 161.847 42.4273 7
      vertex 145.897 45.8176 7
    endloop
  endfacet
  facet normal -0.207913 -0.978147 -0
    outer loop
      vertex 161.847 42.4273 7
      vertex 145.897 45.8176 6
      vertex 161.847 42.4273 6
    endloop
  endfacet
  facet normal 0 -1 0
    outer loop
      vertex 79.1464 44.3068 7
      vertex 90.8536 44.3068 8
      vertex 79.1464 44.3068 8
    endloop
  endfacet
  facet normal 0 -1 -0
    outer loop
      vertex 90.8536 44.3068 8
      vertex 79.1464 44.3068 7
      vertex 90.8536 44.3068 7
    endloop
  endfacet
  facet normal 0.406742 -0.913543 0
    outer loop
      vertex 102.305 46.7408 7
      vertex 113 51.5026 8
      vertex 102.305 46.7408 8
    endloop
  endfacet
  facet normal 0.406742 -0.913543 0
    outer loop
      vertex 113 51.5026 8
      vertex 102.305 46.7408 7
      vertex 113 51.5026 7
    endloop
  endfacet
  facet normal -0.951056 -0.309017 0
    outer loop
      vertex 33.8415 77.2227 7
      vertex 32.9391 80 8
      vertex 32.9391 80 7
    endloop
  endfacet
  facet normal -0.951056 -0.309017 0
    outer loop
      vertex 32.9391 80 8
      vertex 33.8415 77.2227 7
      vertex 33.8415 77.2227 8
    endloop
  endfacet
  facet normal -0.207906 -0.978149 0
    outer loop
      vertex 67.695 46.7408 7
      vertex 79.1464 44.3068 8
      vertex 67.695 46.7408 8
    endloop
  endfacet
  facet normal -0.207906 -0.978149 -0
    outer loop
      vertex 79.1464 44.3068 8
      vertex 67.695 46.7408 7
      vertex 79.1464 44.3068 7
    endloop
  endfacet
  facet normal 0.951097 -0.308893 0
    outer loop
      vertex 136.159 77.2227 8
      vertex 137.061 80 7
      vertex 137.061 80 8
    endloop
  endfacet
  facet normal 0.951097 -0.308893 0
    outer loop
      vertex 137.061 80 7
      vertex 136.159 77.2227 8
      vertex 136.159 77.2227 7
    endloop
  endfacet
  facet normal -0 0 1
    outer loop
      vertex 134.97 80 8
      vertex 136.159 77.2227 8
      vertex 137.061 80 8
    endloop
  endfacet
  facet normal -0 0 1
    outer loop
      vertex 134.331 78.0362 8
      vertex 136.159 77.2227 8
      vertex 134.97 80 8
    endloop
  endfacet
  facet normal 0 0 1
    outer loop
      vertex 134.331 78.0362 8
      vertex 130.305 67.084 8
      vertex 136.159 77.2227 8
    endloop
  endfacet
  facet normal -0 0 1
    outer loop
      vertex 128.687 68.2596 8
      vertex 130.305 67.084 8
      vertex 134.331 78.0362 8
    endloop
  endfacet
  facet normal 0 0 1
    outer loop
      vertex 128.687 68.2596 8
      vertex 122.471 58.3839 8
      vertex 130.305 67.084 8
    endloop
  endfacet
  facet normal -0 0 1
    outer loop
      vertex 121.133 59.8702 8
      vertex 122.471 58.3839 8
      vertex 128.687 68.2596 8
    endloop
  endfacet
  facet normal 0 0 1
    outer loop
      vertex 121.133 59.8702 8
      vertex 113 51.5026 8
      vertex 122.471 58.3839 8
    endloop
  endfacet
  facet normal -0 0 1
    outer loop
      vertex 112 53.2346 8
      vertex 113 51.5026 8
      vertex 121.133 59.8702 8
    endloop
  endfacet
  facet normal 0 0 1
    outer loop
      vertex 112 53.2346 8
      vertex 102.305 46.7408 8
      vertex 113 51.5026 8
    endloop
  endfacet
  facet normal -0 0 1
    outer loop
      vertex 101.687 48.6429 8
      vertex 102.305 46.7408 8
      vertex 112 53.2346 8
    endloop
  endfacet
  facet normal 0 0 1
    outer loop
      vertex 101.687 48.6429 8
      vertex 90.8536 44.3068 8
      vertex 102.305 46.7408 8
    endloop
  endfacet
  facet normal -0 0 1
    outer loop
      vertex 90.6445 46.2958 8
      vertex 90.8536 44.3068 8
      vertex 101.687 48.6429 8
    endloop
  endfacet
  facet normal -0 0 1
    outer loop
      vertex 79.3555 46.2958 8
      vertex 90.8536 44.3068 8
      vertex 90.6445 46.2958 8
    endloop
  endfacet
  facet normal 0 0 1
    outer loop
      vertex 79.3555 46.2958 8
      vertex 79.1464 44.3068 8
      vertex 90.8536 44.3068 8
    endloop
  endfacet
  facet normal 0 0 1
    outer loop
      vertex 68.3131 48.6429 8
      vertex 79.1464 44.3068 8
      vertex 79.3555 46.2958 8
    endloop
  endfacet
  facet normal 0 0 1
    outer loop
      vertex 68.3131 48.6429 8
      vertex 67.695 46.7408 8
      vertex 79.1464 44.3068 8
    endloop
  endfacet
  facet normal 0 0 1
    outer loop
      vertex 58 53.2346 8
      vertex 67.695 46.7408 8
      vertex 68.3131 48.6429 8
    endloop
  endfacet
  facet normal 0 0 1
    outer loop
      vertex 58 53.2346 8
      vertex 57 51.5026 8
      vertex 67.695 46.7408 8
    endloop
  endfacet
  facet normal 0 0 1
    outer loop
      vertex 48.8669 59.8702 8
      vertex 57 51.5026 8
      vertex 58 53.2346 8
    endloop
  endfacet
  facet normal 0 0 1
    outer loop
      vertex 48.8669 59.8702 8
      vertex 47.5287 58.3839 8
      vertex 57 51.5026 8
    endloop
  endfacet
  facet normal 0 0 1
    outer loop
      vertex 41.3131 68.2596 8
      vertex 47.5287 58.3839 8
      vertex 48.8669 59.8702 8
    endloop
  endfacet
  facet normal 0 0 1
    outer loop
      vertex 41.3131 68.2596 8
      vertex 39.695 67.084 8
      vertex 47.5287 58.3839 8
    endloop
  endfacet
  facet normal 0 0 1
    outer loop
      vertex 35.6685 78.0362 8
      vertex 39.695 67.084 8
      vertex 41.3131 68.2596 8
    endloop
  endfacet
  facet normal 0 0 1
    outer loop
      vertex 35.6685 78.0362 8
      vertex 33.8415 77.2227 8
      vertex 39.695 67.084 8
    endloop
  endfacet
  facet normal 0 0 1
    outer loop
      vertex 35.0305 80 8
      vertex 33.8415 77.2227 8
      vertex 35.6685 78.0362 8
    endloop
  endfacet
  facet normal 0 -0 1
    outer loop
      vertex 33.8415 77.2227 8
      vertex 35.0305 80 8
      vertex 32.9391 80 8
    endloop
  endfacet
  facet normal -0.406742 -0.913543 0
    outer loop
      vertex 57 51.5026 7
      vertex 67.695 46.7408 8
      vertex 57 51.5026 8
    endloop
  endfacet
  facet normal -0.406742 -0.913543 -0
    outer loop
      vertex 67.695 46.7408 8
      vertex 57 51.5026 7
      vertex 67.695 46.7408 7
    endloop
  endfacet
  facet normal 0.86601 -0.500027 0
    outer loop
      vertex 130.305 67.084 8
      vertex 136.159 77.2227 7
      vertex 136.159 77.2227 8
    endloop
  endfacet
  facet normal 0.86601 -0.500027 0
    outer loop
      vertex 136.159 77.2227 7
      vertex 130.305 67.084 8
      vertex 130.305 67.084 7
    endloop
  endfacet
  facet normal -0.743141 -0.669135 0
    outer loop
      vertex 47.5287 58.3839 7
      vertex 39.695 67.084 8
      vertex 39.695 67.084 7
    endloop
  endfacet
  facet normal -0.743141 -0.669135 0
    outer loop
      vertex 39.695 67.084 8
      vertex 47.5287 58.3839 7
      vertex 47.5287 58.3839 8
    endloop
  endfacet
  facet normal 0.743128 -0.669149 0
    outer loop
      vertex 122.471 58.3839 8
      vertex 130.305 67.084 7
      vertex 130.305 67.084 8
    endloop
  endfacet
  facet normal 0.743128 -0.669149 0
    outer loop
      vertex 130.305 67.084 7
      vertex 122.471 58.3839 8
      vertex 122.471 58.3839 7
    endloop
  endfacet
  facet normal -0.587785 -0.809017 0
    outer loop
      vertex 47.5287 58.3839 7
      vertex 57 51.5026 8
      vertex 47.5287 58.3839 8
    endloop
  endfacet
  facet normal -0.587785 -0.809017 -0
    outer loop
      vertex 57 51.5026 8
      vertex 47.5287 58.3839 7
      vertex 57 51.5026 7
    endloop
  endfacet
  facet normal 0.587797 -0.809008 0
    outer loop
      vertex 113 51.5026 7
      vertex 122.471 58.3839 8
      vertex 113 51.5026 8
    endloop
  endfacet
  facet normal 0.587797 -0.809008 0
    outer loop
      vertex 122.471 58.3839 8
      vertex 113 51.5026 7
      vertex 122.471 58.3839 7
    endloop
  endfacet
  facet normal 0.207906 -0.978149 0
    outer loop
      vertex 90.8536 44.3068 7
      vertex 102.305 46.7408 8
      vertex 90.8536 44.3068 8
    endloop
  endfacet
  facet normal 0.207906 -0.978149 0
    outer loop
      vertex 102.305 46.7408 8
      vertex 90.8536 44.3068 7
      vertex 102.305 46.7408 7
    endloop
  endfacet
  facet normal -0.866028 -0.499995 0
    outer loop
      vertex 39.695 67.084 7
      vertex 33.8415 77.2227 8
      vertex 33.8415 77.2227 7
    endloop
  endfacet
  facet normal -0.866028 -0.499995 0
    outer loop
      vertex 33.8415 77.2227 8
      vertex 39.695 67.084 7
      vertex 39.695 67.084 8
    endloop
  endfacet
  facet normal 0.950925 -0.309421 0
    outer loop
      vertex 134.331 78.0362 9
      vertex 134.97 80 8
      vertex 134.97 80 9
    endloop
  endfacet
  facet normal 0.950925 -0.309421 0
    outer loop
      vertex 134.97 80 8
      vertex 134.331 78.0362 9
      vertex 134.331 78.0362 8
    endloop
  endfacet
  facet normal 0.406741 -0.913544 0
    outer loop
      vertex 101.687 48.6429 8
      vertex 112 53.2346 9
      vertex 101.687 48.6429 9
    endloop
  endfacet
  facet normal 0.406741 -0.913544 0
    outer loop
      vertex 112 53.2346 9
      vertex 101.687 48.6429 8
      vertex 112 53.2346 8
    endloop
  endfacet
  facet normal -0.207909 -0.978148 0
    outer loop
      vertex 68.3131 48.6429 8
      vertex 79.3555 46.2958 9
      vertex 68.3131 48.6429 9
    endloop
  endfacet
  facet normal -0.207909 -0.978148 -0
    outer loop
      vertex 79.3555 46.2958 9
      vertex 68.3131 48.6429 8
      vertex 79.3555 46.2958 8
    endloop
  endfacet
  facet normal 0 -1 0
    outer loop
      vertex 79.3555 46.2958 8
      vertex 90.6445 46.2958 9
      vertex 79.3555 46.2958 9
    endloop
  endfacet
  facet normal 0 -1 -0
    outer loop
      vertex 90.6445 46.2958 9
      vertex 79.3555 46.2958 8
      vertex 90.6445 46.2958 8
    endloop
  endfacet
  facet normal -0.866022 -0.500005 0
    outer loop
      vertex 41.3131 68.2596 8
      vertex 35.6685 78.0362 9
      vertex 35.6685 78.0362 8
    endloop
  endfacet
  facet normal -0.866022 -0.500005 0
    outer loop
      vertex 35.6685 78.0362 9
      vertex 41.3131 68.2596 8
      vertex 41.3131 68.2596 9
    endloop
  endfacet
  facet normal 0.866045 -0.499965 0
    outer loop
      vertex 128.687 68.2596 9
      vertex 134.331 78.0362 8
      vertex 134.331 78.0362 9
    endloop
  endfacet
  facet normal 0.866045 -0.499965 0
    outer loop
      vertex 134.331 78.0362 8
      vertex 128.687 68.2596 9
      vertex 128.687 68.2596 8
    endloop
  endfacet
  facet normal 0.743138 -0.669138 0
    outer loop
      vertex 121.133 59.8702 9
      vertex 128.687 68.2596 8
      vertex 128.687 68.2596 9
    endloop
  endfacet
  facet normal 0.743138 -0.669138 0
    outer loop
      vertex 128.687 68.2596 8
      vertex 121.133 59.8702 9
      vertex 121.133 59.8702 8
    endloop
  endfacet
  facet normal 0 0 1
    outer loop
      vertex 48 67 9
      vertex 49 67 9
      vertex 49 68 9
    endloop
  endfacet
  facet normal 0 0 1
    outer loop
      vertex 48 67 9
      vertex 49 68 9
      vertex 48 68 9
    endloop
  endfacet
  facet normal 0 0 1
    outer loop
      vertex 49 67 9
      vertex 48 67 9
      vertex 48.8669 59.8702 9
    endloop
  endfacet
  facet normal -0 0 1
    outer loop
      vertex 46 67 9
      vertex 48.8669 59.8702 9
      vertex 48 67 9
    endloop
  endfacet
  facet normal 0 0 1
    outer loop
      vertex 48.8669 59.8702 9
      vertex 46 67 9
      vertex 41.3131 68.2596 9
    endloop
  endfacet
  facet normal 0 0 1
    outer loop
      vertex 52 68 9
      vertex 51 68 9
      vertex 52 67 9
    endloop
  endfacet
  facet normal 0 0 1
    outer loop
      vertex 79.3555 46.2958 9
      vertex 67.5 65 9
      vertex 68.3131 48.6429 9
    endloop
  endfacet
  facet normal -0 0 1
    outer loop
      vertex 64.5 65 9
      vertex 68.3131 48.6429 9
      vertex 67.5 65 9
    endloop
  endfacet
  facet normal -0 0 1
    outer loop
      vertex 57.755 73.5501 9
      vertex 64.5 68 9
      vertex 59.447 73.9363 9
    endloop
  endfacet
  facet normal -0 0 1
    outer loop
      vertex 54 69 9
      vertex 64.5 68 9
      vertex 57.755 73.5501 9
    endloop
  endfacet
  facet normal 0 0 1
    outer loop
      vertex 64.5 65 9
      vertex 58 53.2346 9
      vertex 68.3131 48.6429 9
    endloop
  endfacet
  facet normal 0 0 1
    outer loop
      vertex 54 67 9
      vertex 64.5 68 9
      vertex 54 69 9
    endloop
  endfacet
  facet normal 0 0 1
    outer loop
      vertex 54 69 9
      vertex 57.755 73.5501 9
      vertex 56.3981 74.6322 9
    endloop
  endfacet
  facet normal 0 0 1
    outer loop
      vertex 64.5 68 9
      vertex 54 67 9
      vertex 64.5 65 9
    endloop
  endfacet
  facet normal 0 0 1
    outer loop
      vertex 64.5 65 9
      vertex 54 67 9
      vertex 58 53.2346 9
    endloop
  endfacet
  facet normal 0 0 1
    outer loop
      vertex 48.8669 59.8702 9
      vertex 54 67 9
      vertex 52 67 9
    endloop
  endfacet
  facet normal 0 0 1
    outer loop
      vertex 51 67 9
      vertex 52 67 9
      vertex 51 68 9
    endloop
  endfacet
  facet normal 0 0 1
    outer loop
      vertex 48.8669 59.8702 9
      vertex 52 67 9
      vertex 51 67 9
    endloop
  endfacet
  facet normal 0 0 1
    outer loop
      vertex 48.8669 59.8702 9
      vertex 51 67 9
      vertex 49 67 9
    endloop
  endfacet
  facet normal 0 0 1
    outer loop
      vertex 54 67 9
      vertex 48.8669 59.8702 9
      vertex 58 53.2346 9
    endloop
  endfacet
  facet normal 0 0 1
    outer loop
      vertex 119 68 9
      vertex 118 68 9
      vertex 119 67 9
    endloop
  endfacet
  facet normal 0 0 1
    outer loop
      vertex 121 67 9
      vertex 122 67 9
      vertex 122 68 9
    endloop
  endfacet
  facet normal 0 0 1
    outer loop
      vertex 121 67 9
      vertex 122 68 9
      vertex 121 68 9
    endloop
  endfacet
  facet normal 0 0 1
    outer loop
      vertex 122 67 9
      vertex 121 67 9
      vertex 121.133 59.8702 9
    endloop
  endfacet
  facet normal -0 0 1
    outer loop
      vertex 119 67 9
      vertex 121.133 59.8702 9
      vertex 121 67 9
    endloop
  endfacet
  facet normal 0 0 1
    outer loop
      vertex 118 67 9
      vertex 119 67 9
      vertex 118 68 9
    endloop
  endfacet
  facet normal 0 0 1
    outer loop
      vertex 119 67 9
      vertex 118 67 9
      vertex 121.133 59.8702 9
    endloop
  endfacet
  facet normal -0 0 1
    outer loop
      vertex 116 67 9
      vertex 121.133 59.8702 9
      vertex 118 67 9
    endloop
  endfacet
  facet normal -0 0 1
    outer loop
      vertex 111.755 73.5501 9
      vertex 116 69 9
      vertex 113.447 73.9363 9
    endloop
  endfacet
  facet normal 0 0 1
    outer loop
      vertex 116 67 9
      vertex 112 53.2346 9
      vertex 121.133 59.8702 9
    endloop
  endfacet
  facet normal 0 0 1
    outer loop
      vertex 105.5 68 9
      vertex 116 69 9
      vertex 111.755 73.5501 9
    endloop
  endfacet
  facet normal 0 0 1
    outer loop
      vertex 116 69 9
      vertex 105.5 68 9
      vertex 116 67 9
    endloop
  endfacet
  facet normal 0 0 1
    outer loop
      vertex 105.5 68 9
      vertex 111.755 73.5501 9
      vertex 110.398 74.6322 9
    endloop
  endfacet
  facet normal 0 0 1
    outer loop
      vertex 116 67 9
      vertex 105.5 68 9
      vertex 105.5 65 9
    endloop
  endfacet
  facet normal 0 0 1
    outer loop
      vertex 116 67 9
      vertex 105.5 65 9
      vertex 112 53.2346 9
    endloop
  endfacet
  facet normal 0 0 1
    outer loop
      vertex 101.687 48.6429 9
      vertex 105.5 65 9
      vertex 102.5 65 9
    endloop
  endfacet
  facet normal 0 0 1
    outer loop
      vertex 105.5 65 9
      vertex 101.687 48.6429 9
      vertex 112 53.2346 9
    endloop
  endfacet
  facet normal 0 0 1
    outer loop
      vertex 113.447 77.0637 9
      vertex 134.331 78.0362 9
      vertex 134.97 80 9
    endloop
  endfacet
  facet normal 0 0 1
    outer loop
      vertex 134.331 78.0362 9
      vertex 124 69 9
      vertex 128.687 68.2596 9
    endloop
  endfacet
  facet normal 0 0 1
    outer loop
      vertex 134.331 78.0362 9
      vertex 114.2 75.5 9
      vertex 124 69 9
    endloop
  endfacet
  facet normal 0 0 1
    outer loop
      vertex 124 69 9
      vertex 114.2 75.5 9
      vertex 122 69 9
    endloop
  endfacet
  facet normal 0 0 1
    outer loop
      vertex 122 69 9
      vertex 114.2 75.5 9
      vertex 118 69 9
    endloop
  endfacet
  facet normal 0 0 1
    outer loop
      vertex 118 69 9
      vertex 113.447 73.9363 9
      vertex 116 69 9
    endloop
  endfacet
  facet normal -0 0 1
    outer loop
      vertex 113.447 73.9363 9
      vertex 118 69 9
      vertex 114.2 75.5 9
    endloop
  endfacet
  facet normal 0 0 1
    outer loop
      vertex 134.331 78.0362 9
      vertex 113.447 77.0637 9
      vertex 114.2 75.5 9
    endloop
  endfacet
  facet normal 0 0 1
    outer loop
      vertex 134.97 80 9
      vertex 111.755 77.4499 9
      vertex 113.447 77.0637 9
    endloop
  endfacet
  facet normal 0 0 1
    outer loop
      vertex 102.5 68 9
      vertex 110.398 74.6322 9
      vertex 110.398 76.3678 9
    endloop
  endfacet
  facet normal 0 0 1
    outer loop
      vertex 110.398 74.6322 9
      vertex 102.5 68 9
      vertex 105.5 68 9
    endloop
  endfacet
  facet normal -0 0 1
    outer loop
      vertex 67.5 68 9
      vertex 102.5 65 9
      vertex 102.5 68 9
    endloop
  endfacet
  facet normal 0 0 1
    outer loop
      vertex 102.5 65 9
      vertex 90.6445 46.2958 9
      vertex 101.687 48.6429 9
    endloop
  endfacet
  facet normal 0 0 1
    outer loop
      vertex 102.5 65 9
      vertex 79.3555 46.2958 9
      vertex 90.6445 46.2958 9
    endloop
  endfacet
  facet normal 0 0 1
    outer loop
      vertex 59.447 77.0637 9
      vertex 102.5 68 9
      vertex 110.398 76.3678 9
    endloop
  endfacet
  facet normal 0 0 1
    outer loop
      vertex 67.5 65 9
      vertex 102.5 65 9
      vertex 67.5 68 9
    endloop
  endfacet
  facet normal -0 0 1
    outer loop
      vertex 59.447 77.0637 9
      vertex 110.398 76.3678 9
      vertex 111.755 77.4499 9
    endloop
  endfacet
  facet normal 0 0 1
    outer loop
      vertex 102.5 65 9
      vertex 67.5 65 9
      vertex 79.3555 46.2958 9
    endloop
  endfacet
  facet normal 0 0 1
    outer loop
      vertex 102.5 68 9
      vertex 59.447 77.0637 9
      vertex 67.5 68 9
    endloop
  endfacet
  facet normal -0 0 1
    outer loop
      vertex 59.447 73.9363 9
      vertex 64.5 68 9
      vertex 60.2 75.5 9
    endloop
  endfacet
  facet normal 0 0 1
    outer loop
      vertex 67.5 68 9
      vertex 60.2 75.5 9
      vertex 64.5 68 9
    endloop
  endfacet
  facet normal 0 0 1
    outer loop
      vertex 57.755 77.4499 9
      vertex 111.755 77.4499 9
      vertex 134.97 80 9
    endloop
  endfacet
  facet normal 0 0 1
    outer loop
      vertex 67.5 68 9
      vertex 59.447 77.0637 9
      vertex 60.2 75.5 9
    endloop
  endfacet
  facet normal 0 0 1
    outer loop
      vertex 111.755 77.4499 9
      vertex 57.755 77.4499 9
      vertex 59.447 77.0637 9
    endloop
  endfacet
  facet normal 0 0 1
    outer loop
      vertex 48 69 9
      vertex 56.3981 74.6322 9
      vertex 56.3981 76.3678 9
    endloop
  endfacet
  facet normal 0 0 1
    outer loop
      vertex 56.3981 74.6322 9
      vertex 52 69 9
      vertex 54 69 9
    endloop
  endfacet
  facet normal 0 0 1
    outer loop
      vertex 56.3981 74.6322 9
      vertex 48 69 9
      vertex 52 69 9
    endloop
  endfacet
  facet normal 0 0 1
    outer loop
      vertex 56.3981 76.3678 9
      vertex 46 69 9
      vertex 48 69 9
    endloop
  endfacet
  facet normal 0 0 1
    outer loop
      vertex 35.0305 80 9
      vertex 56.3981 76.3678 9
      vertex 57.755 77.4499 9
    endloop
  endfacet
  facet normal 0 0 1
    outer loop
      vertex 46 69 9
      vertex 41.3131 68.2596 9
      vertex 46 67 9
    endloop
  endfacet
  facet normal 0 0 1
    outer loop
      vertex 56.3981 76.3678 9
      vertex 35.6685 78.0362 9
      vertex 46 69 9
    endloop
  endfacet
  facet normal 0 0 1
    outer loop
      vertex 46 69 9
      vertex 35.6685 78.0362 9
      vertex 41.3131 68.2596 9
    endloop
  endfacet
  facet normal -0 0 1
    outer loop
      vertex 35.0305 80 9
      vertex 57.755 77.4499 9
      vertex 134.97 80 9
    endloop
  endfacet
  facet normal 0 0 1
    outer loop
      vertex 56.3981 76.3678 9
      vertex 35.0305 80 9
      vertex 35.6685 78.0362 9
    endloop
  endfacet
  facet normal 0 0 1
    outer loop
      vertex 124 67 9
      vertex 128.687 68.2596 9
      vertex 124 69 9
    endloop
  endfacet
  facet normal -0 0 1
    outer loop
      vertex 124 67 9
      vertex 121.133 59.8702 9
      vertex 128.687 68.2596 9
    endloop
  endfacet
  facet normal 0 0 1
    outer loop
      vertex 121.133 59.8702 9
      vertex 124 67 9
      vertex 122 67 9
    endloop
  endfacet
  facet normal 0 0 1
    outer loop
      vertex 122 69 9
      vertex 121 68 9
      vertex 122 68 9
    endloop
  endfacet
  facet normal 0 0 1
    outer loop
      vertex 121 68 9
      vertex 119 68 9
      vertex 121 67 9
    endloop
  endfacet
  facet normal 0 0 1
    outer loop
      vertex 122 69 9
      vertex 119 68 9
      vertex 121 68 9
    endloop
  endfacet
  facet normal -0 0 1
    outer loop
      vertex 118 69 9
      vertex 119 68 9
      vertex 122 69 9
    endloop
  endfacet
  facet normal 0 0 1
    outer loop
      vertex 119 68 9
      vertex 118 69 9
      vertex 118 68 9
    endloop
  endfacet
  facet normal 0 0 1
    outer loop
      vertex 121 67 9
      vertex 119 68 9
      vertex 119 67 9
    endloop
  endfacet
  facet normal 0 0 1
    outer loop
      vertex 52 69 9
      vertex 51 68 9
      vertex 52 68 9
    endloop
  endfacet
  facet normal 0 0 1
    outer loop
      vertex 51 68 9
      vertex 49 68 9
      vertex 51 67 9
    endloop
  endfacet
  facet normal 0 0 1
    outer loop
      vertex 52 69 9
      vertex 49 68 9
      vertex 51 68 9
    endloop
  endfacet
  facet normal -0 0 1
    outer loop
      vertex 48 69 9
      vertex 49 68 9
      vertex 52 69 9
    endloop
  endfacet
  facet normal 0 0 1
    outer loop
      vertex 49 68 9
      vertex 48 69 9
      vertex 48 68 9
    endloop
  endfacet
  facet normal 0 0 1
    outer loop
      vertex 51 67 9
      vertex 49 68 9
      vertex 49 67 9
    endloop
  endfacet
  facet normal 0.207907 -0.978149 0
    outer loop
      vertex 90.6445 46.2958 8
      vertex 101.687 48.6429 9
      vertex 90.6445 46.2958 9
    endloop
  endfacet
  facet normal 0.207907 -0.978149 0
    outer loop
      vertex 101.687 48.6429 9
      vertex 90.6445 46.2958 8
      vertex 101.687 48.6429 8
    endloop
  endfacet
  facet normal -0.951068 -0.308983 0
    outer loop
      vertex 35.6685 78.0362 8
      vertex 35.0305 80 9
      vertex 35.0305 80 8
    endloop
  endfacet
  facet normal -0.951068 -0.308983 0
    outer loop
      vertex 35.0305 80 9
      vertex 35.6685 78.0362 8
      vertex 35.6685 78.0362 9
    endloop
  endfacet
  facet normal 0.58779 -0.809013 0
    outer loop
      vertex 112 53.2346 8
      vertex 121.133 59.8702 9
      vertex 112 53.2346 9
    endloop
  endfacet
  facet normal 0.58779 -0.809013 0
    outer loop
      vertex 121.133 59.8702 9
      vertex 112 53.2346 8
      vertex 121.133 59.8702 8
    endloop
  endfacet
  facet normal -0.743147 -0.669128 0
    outer loop
      vertex 48.8669 59.8702 8
      vertex 41.3131 68.2596 9
      vertex 41.3131 68.2596 8
    endloop
  endfacet
  facet normal -0.743147 -0.669128 0
    outer loop
      vertex 41.3131 68.2596 9
      vertex 48.8669 59.8702 8
      vertex 48.8669 59.8702 9
    endloop
  endfacet
  facet normal -0.587786 -0.809016 0
    outer loop
      vertex 48.8669 59.8702 8
      vertex 58 53.2346 9
      vertex 48.8669 59.8702 9
    endloop
  endfacet
  facet normal -0.587786 -0.809016 -0
    outer loop
      vertex 58 53.2346 9
      vertex 48.8669 59.8702 8
      vertex 58 53.2346 8
    endloop
  endfacet
  facet normal -0.406738 -0.913545 0
    outer loop
      vertex 58 53.2346 8
      vertex 68.3131 48.6429 9
      vertex 58 53.2346 9
    endloop
  endfacet
  facet normal -0.406738 -0.913545 -0
    outer loop
      vertex 68.3131 48.6429 9
      vertex 58 53.2346 8
      vertex 68.3131 48.6429 8
    endloop
  endfacet
  facet normal 1 0 0
    outer loop
      vertex 170 7.96808 5
      vertex 170 0 5
      vertex 170 7.96808 3
    endloop
  endfacet
  facet normal 1 0 0
    outer loop
      vertex 170 42.4273 6
      vertex 170 80 7
      vertex 170 42.4273 7
    endloop
  endfacet
  facet normal 1 0 0
    outer loop
      vertex 170 80 7
      vertex 170 42.4273 6
      vertex 170 80 0
    endloop
  endfacet
  facet normal 1 0 0
    outer loop
      vertex 170 40.4382 5
      vertex 170 42.4273 6
      vertex 170 40.4382 6
    endloop
  endfacet
  facet normal 1 0 0
    outer loop
      vertex 170 42.4273 6
      vertex 170 40.4382 5
      vertex 170 80 0
    endloop
  endfacet
  facet normal 1 0 0
    outer loop
      vertex 170 20.6002 3
      vertex 170 40.4382 5
      vertex 170 20.6002 5
    endloop
  endfacet
  facet normal 1 0 0
    outer loop
      vertex 170 40.4382 5
      vertex 170 20.6002 3
      vertex 170 80 0
    endloop
  endfacet
  facet normal 1 0 0
    outer loop
      vertex 170 0 0
      vertex 170 20.6002 3
      vertex 170 7.96808 3
    endloop
  endfacet
  facet normal 1 0 0
    outer loop
      vertex 170 20.6002 3
      vertex 170 0 0
      vertex 170 80 0
    endloop
  endfacet
  facet normal 1 0 0
    outer loop
      vertex 170 0 0
      vertex 170 7.96808 3
      vertex 170 0 5
    endloop
  endfacet
  facet normal -1 0 0
    outer loop
      vertex 0 80 0
      vertex 0 42.4273 6
      vertex 0 80 7
    endloop
  endfacet
  facet normal -1 0 0
    outer loop
      vertex 0 80 0
      vertex 0 40.4382 5
      vertex 0 42.4273 6
    endloop
  endfacet
  facet normal -1 0 0
    outer loop
      vertex 0 80 0
      vertex 0 20.6002 3
      vertex 0 40.4382 5
    endloop
  endfacet
  facet normal -1 0 0
    outer loop
      vertex 0 0 0
      vertex 0 20.6002 3
      vertex 0 80 0
    endloop
  endfacet
  facet normal -1 -0 0
    outer loop
      vertex 0 20.6002 3
      vertex 0 0 0
      vertex 0 7.96809 3
    endloop
  endfacet
  facet normal -1 0 0
    outer loop
      vertex 0 0 5
      vertex 0 7.96809 3
      vertex 0 0 0
    endloop
  endfacet
  facet normal -1 0 0
    outer loop
      vertex 0 7.96809 3
      vertex 0 0 5
      vertex 0 7.96809 5
    endloop
  endfacet
  facet normal -1 -0 0
    outer loop
      vertex 0 80 7
      vertex 0 42.4273 6
      vertex 0 42.4273 7
    endloop
  endfacet
  facet normal -1 -0 0
    outer loop
      vertex 0 42.4273 6
      vertex 0 40.4382 5
      vertex 0 40.4382 6
    endloop
  endfacet
  facet normal -1 -0 0
    outer loop
      vertex 0 40.4382 5
      vertex 0 20.6002 3
      vertex 0 20.6002 5
    endloop
  endfacet
  facet normal 0 1 -0
    outer loop
      vertex 170 80 0
      vertex 137.061 80 7
      vertex 170 80 7
    endloop
  endfacet
  facet normal 0 1 0
    outer loop
      vertex 137.061 80 7
      vertex 170 80 0
      vertex 32.9391 80 7
    endloop
  endfacet
  facet normal 0 1 0
    outer loop
      vertex 0 80 0
      vertex 32.9391 80 7
      vertex 170 80 0
    endloop
  endfacet
  facet normal 0 1 0
    outer loop
      vertex 32.9391 80 7
      vertex 0 80 0
      vertex 0 80 7
    endloop
  endfacet
  facet normal 0 1 -0
    outer loop
      vertex 137.061 80 7
      vertex 134.97 80 8
      vertex 137.061 80 8
    endloop
  endfacet
  facet normal 0 1 0
    outer loop
      vertex 134.97 80 8
      vertex 137.061 80 7
      vertex 35.0305 80 8
    endloop
  endfacet
  facet normal 0 1 0
    outer loop
      vertex 32.9391 80 7
      vertex 35.0305 80 8
      vertex 137.061 80 7
    endloop
  endfacet
  facet normal 0 1 0
    outer loop
      vertex 35.0305 80 8
      vertex 32.9391 80 7
      vertex 32.9391 80 8
    endloop
  endfacet
  facet normal 0 1 -0
    outer loop
      vertex 134.97 80 8
      vertex 35.0305 80 9
      vertex 134.97 80 9
    endloop
  endfacet
  facet normal 0 1 0
    outer loop
      vertex 35.0305 80 9
      vertex 134.97 80 8
      vertex 35.0305 80 8
    endloop
  endfacet
  facet normal 0 0 -1
    outer loop
      vertex 170 0 0
      vertex 168.637 54.6472 0
      vertex 170 80 0
    endloop
  endfacet
  facet normal 0 0 -1
    outer loop
      vertex 170 0 0
      vertex 167.861 51.7495 0
      vertex 168.637 54.6472 0
    endloop
  endfacet
  facet normal 0 0 -1
    outer loop
      vertex 170 0 0
      vertex 164.963 52.5259 0
      vertex 167.861 51.7495 0
    endloop
  endfacet
  facet normal 0 0 -1
    outer loop
      vertex 132.121 61.3258 0
      vertex 164.963 52.5259 0
      vertex 170 0 0
    endloop
  endfacet
  facet normal 0 0 -1
    outer loop
      vertex 164.963 52.5259 0
      vertex 132.121 61.3258 0
      vertex 132.898 64.2235 0
    endloop
  endfacet
  facet normal 0 0 -1
    outer loop
      vertex 170 0 0
      vertex 129.224 62.1022 0
      vertex 132.121 61.3258 0
    endloop
  endfacet
  facet normal 0 0 -1
    outer loop
      vertex 105.5 65 0
      vertex 129.224 62.1022 0
      vertex 170 0 0
    endloop
  endfacet
  facet normal 0 0 -1
    outer loop
      vertex 129.224 62.1022 0
      vertex 122 67 0
      vertex 124 67 0
    endloop
  endfacet
  facet normal 0 0 -1
    outer loop
      vertex 122 67 0
      vertex 118 67 0
      vertex 122 69 0
    endloop
  endfacet
  facet normal 0 0 -1
    outer loop
      vertex 129.224 62.1022 0
      vertex 118 67 0
      vertex 122 67 0
    endloop
  endfacet
  facet normal 0 -0 -1
    outer loop
      vertex 116 67 0
      vertex 129.224 62.1022 0
      vertex 105.5 65 0
    endloop
  endfacet
  facet normal 0 0 -1
    outer loop
      vertex 105.5 68 0
      vertex 116 69 0
      vertex 116 67 0
    endloop
  endfacet
  facet normal 0 0 -1
    outer loop
      vertex 116 69 0
      vertex 113.447 73.9363 0
      vertex 114.2 75.5 0
    endloop
  endfacet
  facet normal 0 0 -1
    outer loop
      vertex 116 69 0
      vertex 111.755 73.5501 0
      vertex 113.447 73.9363 0
    endloop
  endfacet
  facet normal -0 0 -1
    outer loop
      vertex 116 69 0
      vertex 105.5 68 0
      vertex 111.755 73.5501 0
    endloop
  endfacet
  facet normal -0 0 -1
    outer loop
      vertex 111.755 73.5501 0
      vertex 105.5 68 0
      vertex 110.398 74.6322 0
    endloop
  endfacet
  facet normal 0 0 -1
    outer loop
      vertex 105.5 68 0
      vertex 116 67 0
      vertex 105.5 65 0
    endloop
  endfacet
  facet normal 0 0 -1
    outer loop
      vertex 129.224 62.1022 0
      vertex 116 67 0
      vertex 118 67 0
    endloop
  endfacet
  facet normal 0 0 -1
    outer loop
      vertex 170 0 0
      vertex 102.5 65 0
      vertex 105.5 65 0
    endloop
  endfacet
  facet normal 0 0 -1
    outer loop
      vertex 102.5 65 0
      vertex 67.5 65 0
      vertex 102.5 68 0
    endloop
  endfacet
  facet normal 0 0 -1
    outer loop
      vertex 170 0 0
      vertex 67.5 65 0
      vertex 102.5 65 0
    endloop
  endfacet
  facet normal 0 0 -1
    outer loop
      vertex 0 0 0
      vertex 67.5 65 0
      vertex 170 0 0
    endloop
  endfacet
  facet normal 0 0 -1
    outer loop
      vertex 54 67 0
      vertex 64.5 68 0
      vertex 64.5 65 0
    endloop
  endfacet
  facet normal 0 0 -1
    outer loop
      vertex 64.5 68 0
      vertex 59.447 73.9363 0
      vertex 60.2 75.5 0
    endloop
  endfacet
  facet normal 0 0 -1
    outer loop
      vertex 64.5 68 0
      vertex 57.755 73.5501 0
      vertex 59.447 73.9363 0
    endloop
  endfacet
  facet normal 0 0 -1
    outer loop
      vertex 64.5 68 0
      vertex 54 69 0
      vertex 57.755 73.5501 0
    endloop
  endfacet
  facet normal -0 0 -1
    outer loop
      vertex 57.755 73.5501 0
      vertex 54 69 0
      vertex 56.3981 74.6322 0
    endloop
  endfacet
  facet normal -0 0 -1
    outer loop
      vertex 64.5 68 0
      vertex 54 67 0
      vertex 54 69 0
    endloop
  endfacet
  facet normal -0 0 -1
    outer loop
      vertex 67.5 65 0
      vertex 0 0 0
      vertex 64.5 65 0
    endloop
  endfacet
  facet normal 0 -0 -1
    outer loop
      vertex 39.9135 62.455 0
      vertex 64.5 65 0
      vertex 0 0 0
    endloop
  endfacet
  facet normal 0 0 -1
    outer loop
      vertex 52 67 0
      vertex 48 67 0
      vertex 52 69 0
    endloop
  endfacet
  facet normal -0 0 -1
    outer loop
      vertex 64.5 65 0
      vertex 39.9135 62.455 0
      vertex 54 67 0
    endloop
  endfacet
  facet normal -0 0 -1
    outer loop
      vertex 52 67 0
      vertex 39.9135 62.455 0
      vertex 48 67 0
    endloop
  endfacet
  facet normal 0 0 -1
    outer loop
      vertex 39.137 65.3528 0
      vertex 46 67 0
      vertex 39.9135 62.455 0
    endloop
  endfacet
  facet normal -0 0 -1
    outer loop
      vertex 48 67 0
      vertex 39.9135 62.455 0
      vertex 46 67 0
    endloop
  endfacet
  facet normal -0 0 -1
    outer loop
      vertex 54 67 0
      vertex 39.9135 62.455 0
      vertex 52 67 0
    endloop
  endfacet
  facet normal -0 0 -1
    outer loop
      vertex 37.0157 61.6785 0
      vertex 4.17423 52.8787 0
      vertex 36.2393 64.5763 0
    endloop
  endfacet
  facet normal 0 0 -1
    outer loop
      vertex 39.9135 62.455 0
      vertex 0 0 0
      vertex 37.0157 61.6785 0
    endloop
  endfacet
  facet normal 0 0 -1
    outer loop
      vertex 37.0157 61.6785 0
      vertex 0 0 0
      vertex 4.17423 52.8787 0
    endloop
  endfacet
  facet normal -0 0 -1
    outer loop
      vertex 1.27646 52.1022 0
      vertex 0 0 0
      vertex 0.5 55 0
    endloop
  endfacet
  facet normal 0 0 -1
    outer loop
      vertex 4.17423 52.8787 0
      vertex 0 0 0
      vertex 1.27646 52.1022 0
    endloop
  endfacet
  facet normal 0 0 -1
    outer loop
      vertex 165.739 55.4237 0
      vertex 170 80 0
      vertex 168.637 54.6472 0
    endloop
  endfacet
  facet normal 0 0 -1
    outer loop
      vertex 132.898 64.2235 0
      vertex 165.739 55.4237 0
      vertex 164.963 52.5259 0
    endloop
  endfacet
  facet normal 0 0 -1
    outer loop
      vertex 165.739 55.4237 0
      vertex 132.898 64.2235 0
      vertex 170 80 0
    endloop
  endfacet
  facet normal 0 0 -1
    outer loop
      vertex 124 69 0
      vertex 132.898 64.2235 0
      vertex 130 65 0
    endloop
  endfacet
  facet normal 0 0 -1
    outer loop
      vertex 124 67 0
      vertex 130 65 0
      vertex 129.224 62.1022 0
    endloop
  endfacet
  facet normal 0 0 -1
    outer loop
      vertex 124 69 0
      vertex 130 65 0
      vertex 124 67 0
    endloop
  endfacet
  facet normal 0 0 -1
    outer loop
      vertex 132.898 64.2235 0
      vertex 124 69 0
      vertex 170 80 0
    endloop
  endfacet
  facet normal 0 0 -1
    outer loop
      vertex 114.2 75.5 0
      vertex 124 69 0
      vertex 122 69 0
    endloop
  endfacet
  facet normal 0 0 -1
    outer loop
      vertex 118 69 0
      vertex 122 69 0
      vertex 118 67 0
    endloop
  endfacet
  facet normal 0 0 -1
    outer loop
      vertex 114.2 75.5 0
      vertex 122 69 0
      vertex 118 69 0
    endloop
  endfacet
  facet normal 0 0 -1
    outer loop
      vertex 114.2 75.5 0
      vertex 118 69 0
      vertex 116 69 0
    endloop
  endfacet
  facet normal 0 0 -1
    outer loop
      vertex 124 69 0
      vertex 114.2 75.5 0
      vertex 113.447 77.0637 0
    endloop
  endfacet
  facet normal 0 0 -1
    outer loop
      vertex 124 69 0
      vertex 113.447 77.0637 0
      vertex 170 80 0
    endloop
  endfacet
  facet normal 0 0 -1
    outer loop
      vertex 111.755 77.4499 0
      vertex 170 80 0
      vertex 113.447 77.0637 0
    endloop
  endfacet
  facet normal 0 0 -1
    outer loop
      vertex 102.5 68 0
      vertex 110.398 74.6322 0
      vertex 105.5 68 0
    endloop
  endfacet
  facet normal -0 0 -1
    outer loop
      vertex 110.398 74.6322 0
      vertex 102.5 68 0
      vertex 110.398 76.3678 0
    endloop
  endfacet
  facet normal 0 0 -1
    outer loop
      vertex 67.5 68 0
      vertex 102.5 68 0
      vertex 67.5 65 0
    endloop
  endfacet
  facet normal 0 0 -1
    outer loop
      vertex 59.447 77.0637 0
      vertex 102.5 68 0
      vertex 67.5 68 0
    endloop
  endfacet
  facet normal 0 0 -1
    outer loop
      vertex 102.5 68 0
      vertex 59.447 77.0637 0
      vertex 110.398 76.3678 0
    endloop
  endfacet
  facet normal 0 0 -1
    outer loop
      vertex 60.2 75.5 0
      vertex 67.5 68 0
      vertex 64.5 68 0
    endloop
  endfacet
  facet normal 0 0 -1
    outer loop
      vertex 59.447 77.0637 0
      vertex 67.5 68 0
      vertex 60.2 75.5 0
    endloop
  endfacet
  facet normal 0 0 -1
    outer loop
      vertex 110.398 76.3678 0
      vertex 59.447 77.0637 0
      vertex 111.755 77.4499 0
    endloop
  endfacet
  facet normal 0 0 -1
    outer loop
      vertex 57.755 77.4499 0
      vertex 111.755 77.4499 0
      vertex 59.447 77.0637 0
    endloop
  endfacet
  facet normal 0 0 -1
    outer loop
      vertex 111.755 77.4499 0
      vertex 57.755 77.4499 0
      vertex 170 80 0
    endloop
  endfacet
  facet normal 0 0 -1
    outer loop
      vertex 52 69 0
      vertex 56.3981 74.6322 0
      vertex 54 69 0
    endloop
  endfacet
  facet normal 0 0 -1
    outer loop
      vertex 48 69 0
      vertex 56.3981 74.6322 0
      vertex 52 69 0
    endloop
  endfacet
  facet normal 0 0 -1
    outer loop
      vertex 48 69 0
      vertex 52 69 0
      vertex 48 67 0
    endloop
  endfacet
  facet normal -0 0 -1
    outer loop
      vertex 56.3981 74.6322 0
      vertex 48 69 0
      vertex 56.3981 76.3678 0
    endloop
  endfacet
  facet normal 0 0 -1
    outer loop
      vertex 46 69 0
      vertex 56.3981 76.3678 0
      vertex 48 69 0
    endloop
  endfacet
  facet normal 0 0 -1
    outer loop
      vertex 0 80 0
      vertex 56.3981 76.3678 0
      vertex 46 69 0
    endloop
  endfacet
  facet normal -0 0 -1
    outer loop
      vertex 46 67 0
      vertex 39.137 65.3528 0
      vertex 46 69 0
    endloop
  endfacet
  facet normal 0 0 -1
    outer loop
      vertex 36.2393 64.5763 0
      vertex 46 69 0
      vertex 39.137 65.3528 0
    endloop
  endfacet
  facet normal -0 0 -1
    outer loop
      vertex 46 69 0
      vertex 36.2393 64.5763 0
      vertex 0 80 0
    endloop
  endfacet
  facet normal 0 0 -1
    outer loop
      vertex 3.39778 55.7765 0
      vertex 36.2393 64.5763 0
      vertex 4.17423 52.8787 0
    endloop
  endfacet
  facet normal 0 0 -1
    outer loop
      vertex 0 80 0
      vertex 36.2393 64.5763 0
      vertex 3.39778 55.7765 0
    endloop
  endfacet
  facet normal 0 0 -1
    outer loop
      vertex 0 80 0
      vertex 3.39778 55.7765 0
      vertex 0.5 55 0
    endloop
  endfacet
  facet normal 0 0 -1
    outer loop
      vertex 57.755 77.4499 0
      vertex 0 80 0
      vertex 170 80 0
    endloop
  endfacet
  facet normal 0 0 -1
    outer loop
      vertex 56.3981 76.3678 0
      vertex 0 80 0
      vertex 57.755 77.4499 0
    endloop
  endfacet
  facet normal 0 0 -1
    outer loop
      vertex 0 80 0
      vertex 0.5 55 0
      vertex 0 0 0
    endloop
  endfacet
  facet normal 0 -1 0
    outer loop
      vertex 0 0 0
      vertex 170 0 5
      vertex 0 0 5
    endloop
  endfacet
  facet normal 0 -1 -0
    outer loop
      vertex 170 0 5
      vertex 0 0 0
      vertex 170 0 0
    endloop
  endfacet
  facet normal -1 0 0
    outer loop
      vertex 54 67 0
      vertex 54 69 9
      vertex 54 69 0
    endloop
  endfacet
  facet normal -1 -0 0
    outer loop
      vertex 54 69 9
      vertex 54 67 0
      vertex 54 67 9
    endloop
  endfacet
  facet normal 0 1 -0
    outer loop
      vertex 54 67 0
      vertex 52 67 9
      vertex 54 67 9
    endloop
  endfacet
  facet normal 0 1 0
    outer loop
      vertex 52 67 9
      vertex 54 67 0
      vertex 52 67 0
    endloop
  endfacet
  facet normal 0 1 -0
    outer loop
      vertex 48 67 0
      vertex 46 67 9
      vertex 48 67 9
    endloop
  endfacet
  facet normal 0 1 0
    outer loop
      vertex 46 67 9
      vertex 48 67 0
      vertex 46 67 0
    endloop
  endfacet
  facet normal 0 -1 0
    outer loop
      vertex 52 69 0
      vertex 54 69 9
      vertex 52 69 9
    endloop
  endfacet
  facet normal 0 -1 -0
    outer loop
      vertex 54 69 9
      vertex 52 69 0
      vertex 54 69 0
    endloop
  endfacet
  facet normal 0 -1 0
    outer loop
      vertex 46 69 0
      vertex 48 69 9
      vertex 46 69 9
    endloop
  endfacet
  facet normal 0 -1 -0
    outer loop
      vertex 48 69 9
      vertex 46 69 0
      vertex 48 69 0
    endloop
  endfacet
  facet normal 1 -0 0
    outer loop
      vertex 46 67 9
      vertex 46 69 0
      vertex 46 69 9
    endloop
  endfacet
  facet normal 1 0 0
    outer loop
      vertex 46 69 0
      vertex 46 67 9
      vertex 46 67 0
    endloop
  endfacet
  facet normal -1 0 0
    outer loop
      vertex 48 69 0
      vertex 48 68 9
      vertex 48 69 9
    endloop
  endfacet
  facet normal -1 0 0
    outer loop
      vertex 48 67 0
      vertex 48 68 9
      vertex 48 69 0
    endloop
  endfacet
  facet normal -1 -0 0
    outer loop
      vertex 48 68 9
      vertex 48 67 0
      vertex 48 67 9
    endloop
  endfacet
  facet normal 1 -0 0
    outer loop
      vertex 52 68 9
      vertex 52 69 0
      vertex 52 69 9
    endloop
  endfacet
  facet normal 1 0 0
    outer loop
      vertex 52 67 0
      vertex 52 68 9
      vertex 52 67 9
    endloop
  endfacet
  facet normal 1 0 0
    outer loop
      vertex 52 68 9
      vertex 52 67 0
      vertex 52 69 0
    endloop
  endfacet
  facet normal -1 0 0
    outer loop
      vertex 124 67 0
      vertex 124 69 9
      vertex 124 69 0
    endloop
  endfacet
  facet normal -1 -0 0
    outer loop
      vertex 124 69 9
      vertex 124 67 0
      vertex 124 67 9
    endloop
  endfacet
  facet normal 0 1 -0
    outer loop
      vertex 124 67 0
      vertex 122 67 9
      vertex 124 67 9
    endloop
  endfacet
  facet normal 0 1 0
    outer loop
      vertex 122 67 9
      vertex 124 67 0
      vertex 122 67 0
    endloop
  endfacet
  facet normal 0 1 -0
    outer loop
      vertex 118 67 0
      vertex 116 67 9
      vertex 118 67 9
    endloop
  endfacet
  facet normal 0 1 0
    outer loop
      vertex 116 67 9
      vertex 118 67 0
      vertex 116 67 0
    endloop
  endfacet
  facet normal 0 -1 0
    outer loop
      vertex 122 69 0
      vertex 124 69 9
      vertex 122 69 9
    endloop
  endfacet
  facet normal 0 -1 -0
    outer loop
      vertex 124 69 9
      vertex 122 69 0
      vertex 124 69 0
    endloop
  endfacet
  facet normal 0 -1 0
    outer loop
      vertex 116 69 0
      vertex 118 69 9
      vertex 116 69 9
    endloop
  endfacet
  facet normal 0 -1 -0
    outer loop
      vertex 118 69 9
      vertex 116 69 0
      vertex 118 69 0
    endloop
  endfacet
  facet normal 1 -0 0
    outer loop
      vertex 116 67 9
      vertex 116 69 0
      vertex 116 69 9
    endloop
  endfacet
  facet normal 1 0 0
    outer loop
      vertex 116 69 0
      vertex 116 67 9
      vertex 116 67 0
    endloop
  endfacet
  facet normal -1 0 0
    outer loop
      vertex 118 69 0
      vertex 118 68 9
      vertex 118 69 9
    endloop
  endfacet
  facet normal -1 0 0
    outer loop
      vertex 118 67 0
      vertex 118 68 9
      vertex 118 69 0
    endloop
  endfacet
  facet normal -1 -0 0
    outer loop
      vertex 118 68 9
      vertex 118 67 0
      vertex 118 67 9
    endloop
  endfacet
  facet normal 1 -0 0
    outer loop
      vertex 122 68 9
      vertex 122 69 0
      vertex 122 69 9
    endloop
  endfacet
  facet normal 1 0 0
    outer loop
      vertex 122 67 0
      vertex 122 68 9
      vertex 122 67 9
    endloop
  endfacet
  facet normal 1 0 0
    outer loop
      vertex 122 68 9
      vertex 122 67 0
      vertex 122 69 0
    endloop
  endfacet
  facet normal -0.25883 0.965923 0
    outer loop
      vertex 39.9135 62.455 0
      vertex 37.0157 61.6785 7
      vertex 39.9135 62.455 7
    endloop
  endfacet
  facet normal -0.25883 0.965923 0
    outer loop
      vertex 37.0157 61.6785 7
      vertex 39.9135 62.455 0
      vertex 37.0157 61.6785 0
    endloop
  endfacet
  facet normal -0.258833 0.965922 0
    outer loop
      vertex 4.17423 52.8787 0
      vertex 1.27646 52.1022 7
      vertex 4.17423 52.8787 7
    endloop
  endfacet
  facet normal -0.258833 0.965922 0
    outer loop
      vertex 1.27646 52.1022 7
      vertex 4.17423 52.8787 0
      vertex 1.27646 52.1022 0
    endloop
  endfacet
  facet normal -0.965927 -0.258815 0
    outer loop
      vertex 4.17423 52.8787 0
      vertex 3.39778 55.7765 7
      vertex 3.39778 55.7765 0
    endloop
  endfacet
  facet normal -0.965927 -0.258815 0
    outer loop
      vertex 3.39778 55.7765 7
      vertex 4.17423 52.8787 0
      vertex 4.17423 52.8787 7
    endloop
  endfacet
  facet normal 0.258839 -0.965921 0
    outer loop
      vertex 36.2393 64.5763 0
      vertex 39.137 65.3528 7
      vertex 36.2393 64.5763 7
    endloop
  endfacet
  facet normal 0.258839 -0.965921 0
    outer loop
      vertex 39.137 65.3528 7
      vertex 36.2393 64.5763 0
      vertex 39.137 65.3528 0
    endloop
  endfacet
  facet normal 0.258832 -0.965922 0
    outer loop
      vertex 0.5 55 0
      vertex 3.39778 55.7765 7
      vertex 0.5 55 7
    endloop
  endfacet
  facet normal 0.258832 -0.965922 0
    outer loop
      vertex 3.39778 55.7765 7
      vertex 0.5 55 0
      vertex 3.39778 55.7765 0
    endloop
  endfacet
  facet normal 0.965926 0.258818 0
    outer loop
      vertex 1.27646 52.1022 7
      vertex 0.5 55 0
      vertex 0.5 55 7
    endloop
  endfacet
  facet normal 0.965926 0.258818 0
    outer loop
      vertex 0.5 55 0
      vertex 1.27646 52.1022 7
      vertex 1.27646 52.1022 0
    endloop
  endfacet
  facet normal -0.965923 -0.25883 0
    outer loop
      vertex 39.9135 62.455 0
      vertex 39.137 65.3528 7
      vertex 39.137 65.3528 0
    endloop
  endfacet
  facet normal -0.965923 -0.25883 0
    outer loop
      vertex 39.137 65.3528 7
      vertex 39.9135 62.455 0
      vertex 39.9135 62.455 7
    endloop
  endfacet
  facet normal 0.965931 0.258799 0
    outer loop
      vertex 37.0157 61.6785 7
      vertex 36.2393 64.5763 0
      vertex 36.2393 64.5763 7
    endloop
  endfacet
  facet normal 0.965931 0.258799 0
    outer loop
      vertex 36.2393 64.5763 0
      vertex 37.0157 61.6785 7
      vertex 37.0157 61.6785 0
    endloop
  endfacet
  facet normal 0.258783 0.965936 -0
    outer loop
      vertex 167.861 51.7495 0
      vertex 164.963 52.5259 7
      vertex 167.861 51.7495 7
    endloop
  endfacet
  facet normal 0.258783 0.965936 0
    outer loop
      vertex 164.963 52.5259 7
      vertex 167.861 51.7495 0
      vertex 164.963 52.5259 0
    endloop
  endfacet
  facet normal 0.258866 0.965913 -0
    outer loop
      vertex 132.121 61.3258 0
      vertex 129.224 62.1022 7
      vertex 132.121 61.3258 7
    endloop
  endfacet
  facet normal 0.258866 0.965913 0
    outer loop
      vertex 129.224 62.1022 7
      vertex 132.121 61.3258 0
      vertex 129.224 62.1022 0
    endloop
  endfacet
  facet normal -0.965879 0.258994 0
    outer loop
      vertex 132.121 61.3258 0
      vertex 132.898 64.2235 7
      vertex 132.898 64.2235 0
    endloop
  endfacet
  facet normal -0.965879 0.258994 0
    outer loop
      vertex 132.898 64.2235 7
      vertex 132.121 61.3258 0
      vertex 132.121 61.3258 7
    endloop
  endfacet
  facet normal -0.258814 -0.965927 0
    outer loop
      vertex 165.739 55.4237 0
      vertex 168.637 54.6472 7
      vertex 165.739 55.4237 7
    endloop
  endfacet
  facet normal -0.258814 -0.965927 -0
    outer loop
      vertex 168.637 54.6472 7
      vertex 165.739 55.4237 0
      vertex 168.637 54.6472 0
    endloop
  endfacet
  facet normal -0.258814 -0.965927 0
    outer loop
      vertex 130 65 0
      vertex 132.898 64.2235 7
      vertex 130 65 7
    endloop
  endfacet
  facet normal -0.258814 -0.965927 -0
    outer loop
      vertex 132.898 64.2235 7
      vertex 130 65 0
      vertex 132.898 64.2235 0
    endloop
  endfacet
  facet normal 0.965964 -0.258675 0
    outer loop
      vertex 129.224 62.1022 7
      vertex 130 65 0
      vertex 130 65 7
    endloop
  endfacet
  facet normal 0.965964 -0.258675 0
    outer loop
      vertex 130 65 0
      vertex 129.224 62.1022 7
      vertex 129.224 62.1022 0
    endloop
  endfacet
  facet normal -0.965962 0.258683 0
    outer loop
      vertex 167.861 51.7495 0
      vertex 168.637 54.6472 7
      vertex 168.637 54.6472 0
    endloop
  endfacet
  facet normal -0.965962 0.258683 0
    outer loop
      vertex 168.637 54.6472 7
      vertex 167.861 51.7495 0
      vertex 167.861 51.7495 7
    endloop
  endfacet
  facet normal 0.965964 -0.258675 0
    outer loop
      vertex 164.963 52.5259 7
      vertex 165.739 55.4237 0
      vertex 165.739 55.4237 7
    endloop
  endfacet
  facet normal 0.965964 -0.258675 0
    outer loop
      vertex 165.739 55.4237 0
      vertex 164.963 52.5259 7
      vertex 164.963 52.5259 0
    endloop
  endfacet
  facet normal 0 0 1
    outer loop
      vertex 161.873 12.6601 3
      vertex 170 20.6002 3
      vertex 166.347 22.7091 3
    endloop
  endfacet
  facet normal 0 0 1
    outer loop
      vertex 170 20.6002 3
      vertex 161.873 12.6601 3
      vertex 170 7.96808 3
    endloop
  endfacet
  facet normal 0 0 1
    outer loop
      vertex 126.582 35.6295 3
      vertex 161.873 12.6601 3
      vertex 166.347 22.7091 3
    endloop
  endfacet
  facet normal 0 0 1
    outer loop
      vertex 126.582 35.6295 3
      vertex 124.295 24.8699 3
      vertex 161.873 12.6601 3
    endloop
  endfacet
  facet normal 0 0 1
    outer loop
      vertex 85 40 3
      vertex 124.295 24.8699 3
      vertex 126.582 35.6295 3
    endloop
  endfacet
  facet normal 0 0 1
    outer loop
      vertex 85 40 3
      vertex 85 29 3
      vertex 124.295 24.8699 3
    endloop
  endfacet
  facet normal 0 0 1
    outer loop
      vertex 85 40 3
      vertex 45.7047 24.8699 3
      vertex 85 29 3
    endloop
  endfacet
  facet normal -0 0 1
    outer loop
      vertex 43.4177 35.6295 3
      vertex 45.7047 24.8699 3
      vertex 85 40 3
    endloop
  endfacet
  facet normal 0 0 1
    outer loop
      vertex 43.4177 35.6295 3
      vertex 8.12678 12.6601 3
      vertex 45.7047 24.8699 3
    endloop
  endfacet
  facet normal -0 0 1
    outer loop
      vertex 3.65268 22.7091 3
      vertex 8.12678 12.6601 3
      vertex 43.4177 35.6295 3
    endloop
  endfacet
  facet normal -0 0 1
    outer loop
      vertex 0 20.6002 3
      vertex 8.12678 12.6601 3
      vertex 3.65268 22.7091 3
    endloop
  endfacet
  facet normal 0 0 1
    outer loop
      vertex 8.12678 12.6601 3
      vertex 0 20.6002 3
      vertex 0 7.96809 3
    endloop
  endfacet
  facet normal -0.499971 -0.866042 0
    outer loop
      vertex 166.347 22.7091 3
      vertex 170 20.6002 5
      vertex 166.347 22.7091 5
    endloop
  endfacet
  facet normal -0.499971 -0.866042 -0
    outer loop
      vertex 170 20.6002 5
      vertex 166.347 22.7091 3
      vertex 170 20.6002 3
    endloop
  endfacet
  facet normal -0.309016 -0.951057 0
    outer loop
      vertex 126.582 35.6295 3
      vertex 166.347 22.7091 5
      vertex 126.582 35.6295 5
    endloop
  endfacet
  facet normal -0.309016 -0.951057 -0
    outer loop
      vertex 166.347 22.7091 5
      vertex 126.582 35.6295 3
      vertex 166.347 22.7091 3
    endloop
  endfacet
  facet normal -0.10453 -0.994522 0
    outer loop
      vertex 85 40 3
      vertex 126.582 35.6295 5
      vertex 85 40 5
    endloop
  endfacet
  facet normal -0.10453 -0.994522 -0
    outer loop
      vertex 126.582 35.6295 5
      vertex 85 40 3
      vertex 126.582 35.6295 3
    endloop
  endfacet
  facet normal 0.104529 -0.994522 0
    outer loop
      vertex 43.4177 35.6295 3
      vertex 85 40 5
      vertex 43.4177 35.6295 5
    endloop
  endfacet
  facet normal 0.104529 -0.994522 0
    outer loop
      vertex 85 40 5
      vertex 43.4177 35.6295 3
      vertex 85 40 3
    endloop
  endfacet
  facet normal 0.309016 -0.951057 0
    outer loop
      vertex 3.65268 22.7091 3
      vertex 43.4177 35.6295 5
      vertex 3.65268 22.7091 5
    endloop
  endfacet
  facet normal 0.309016 -0.951057 0
    outer loop
      vertex 43.4177 35.6295 5
      vertex 3.65268 22.7091 3
      vertex 43.4177 35.6295 3
    endloop
  endfacet
  facet normal 0.500004 -0.866023 0
    outer loop
      vertex 0 20.6002 3
      vertex 3.65268 22.7091 5
      vertex 0 20.6002 5
    endloop
  endfacet
  facet normal 0.500004 -0.866023 0
    outer loop
      vertex 3.65268 22.7091 5
      vertex 0 20.6002 3
      vertex 3.65268 22.7091 3
    endloop
  endfacet
  facet normal -0.500001 0.866025 0
    outer loop
      vertex 8.12678 12.6601 3
      vertex 0 7.96809 5
      vertex 8.12678 12.6601 5
    endloop
  endfacet
  facet normal -0.500001 0.866025 0
    outer loop
      vertex 0 7.96809 5
      vertex 8.12678 12.6601 3
      vertex 0 7.96809 3
    endloop
  endfacet
  facet normal -0.309017 0.951057 0
    outer loop
      vertex 45.7047 24.8699 3
      vertex 8.12678 12.6601 5
      vertex 45.7047 24.8699 5
    endloop
  endfacet
  facet normal -0.309017 0.951057 0
    outer loop
      vertex 8.12678 12.6601 5
      vertex 45.7047 24.8699 3
      vertex 8.12678 12.6601 3
    endloop
  endfacet
  facet normal -0.104528 0.994522 0
    outer loop
      vertex 85 29 3
      vertex 45.7047 24.8699 5
      vertex 85 29 5
    endloop
  endfacet
  facet normal -0.104528 0.994522 0
    outer loop
      vertex 45.7047 24.8699 5
      vertex 85 29 3
      vertex 45.7047 24.8699 3
    endloop
  endfacet
  facet normal 0.104529 0.994522 -0
    outer loop
      vertex 124.295 24.8699 3
      vertex 85 29 5
      vertex 124.295 24.8699 5
    endloop
  endfacet
  facet normal 0.104529 0.994522 0
    outer loop
      vertex 85 29 5
      vertex 124.295 24.8699 3
      vertex 85 29 3
    endloop
  endfacet
  facet normal 0.309016 0.951057 -0
    outer loop
      vertex 161.873 12.6601 3
      vertex 124.295 24.8699 5
      vertex 161.873 12.6601 5
    endloop
  endfacet
  facet normal 0.309016 0.951057 0
    outer loop
      vertex 124.295 24.8699 5
      vertex 161.873 12.6601 3
      vertex 124.295 24.8699 3
    endloop
  endfacet
  facet normal 0.499992 0.86603 -0
    outer loop
      vertex 170 7.96808 3
      vertex 161.873 12.6601 5
      vertex 170 7.96808 5
    endloop
  endfacet
  facet normal 0.499992 0.86603 0
    outer loop
      vertex 161.873 12.6601 5
      vertex 170 7.96808 3
      vertex 161.873 12.6601 3
    endloop
  endfacet
  facet normal 0 1 -0
    outer loop
      vertex 105.5 65 0
      vertex 102.5 65 9
      vertex 105.5 65 9
    endloop
  endfacet
  facet normal 0 1 0
    outer loop
      vertex 102.5 65 9
      vertex 105.5 65 0
      vertex 102.5 65 0
    endloop
  endfacet
  facet normal 0 1 -0
    outer loop
      vertex 67.5 65 0
      vertex 64.5 65 9
      vertex 67.5 65 9
    endloop
  endfacet
  facet normal 0 1 0
    outer loop
      vertex 64.5 65 9
      vertex 67.5 65 0
      vertex 64.5 65 0
    endloop
  endfacet
  facet normal 0 -1 0
    outer loop
      vertex 102.5 68 0
      vertex 105.5 68 9
      vertex 102.5 68 9
    endloop
  endfacet
  facet normal 0 -1 -0
    outer loop
      vertex 105.5 68 9
      vertex 102.5 68 0
      vertex 105.5 68 0
    endloop
  endfacet
  facet normal 0 -1 0
    outer loop
      vertex 64.5 68 0
      vertex 67.5 68 9
      vertex 64.5 68 9
    endloop
  endfacet
  facet normal 0 -1 -0
    outer loop
      vertex 67.5 68 9
      vertex 64.5 68 0
      vertex 67.5 68 0
    endloop
  endfacet
  facet normal -1 0 0
    outer loop
      vertex 67.5 65 0
      vertex 67.5 68 9
      vertex 67.5 68 0
    endloop
  endfacet
  facet normal -1 -0 0
    outer loop
      vertex 67.5 68 9
      vertex 67.5 65 0
      vertex 67.5 65 9
    endloop
  endfacet
  facet normal 1 -0 0
    outer loop
      vertex 64.5 65 9
      vertex 64.5 68 0
      vertex 64.5 68 9
    endloop
  endfacet
  facet normal 1 0 0
    outer loop
      vertex 64.5 68 0
      vertex 64.5 65 9
      vertex 64.5 65 0
    endloop
  endfacet
  facet normal -1 0 0
    outer loop
      vertex 105.5 65 0
      vertex 105.5 68 9
      vertex 105.5 68 0
    endloop
  endfacet
  facet normal -1 -0 0
    outer loop
      vertex 105.5 68 9
      vertex 105.5 65 0
      vertex 105.5 65 9
    endloop
  endfacet
  facet normal 1 -0 0
    outer loop
      vertex 102.5 65 9
      vertex 102.5 68 0
      vertex 102.5 68 9
    endloop
  endfacet
  facet normal 1 0 0
    outer loop
      vertex 102.5 68 0
      vertex 102.5 65 9
      vertex 102.5 65 0
    endloop
  endfacet
  facet normal -0.222528 0.974926 0
    outer loop
      vertex 59.447 73.9363 0
      vertex 57.755 73.5501 9
      vertex 59.447 73.9363 9
    endloop
  endfacet
  facet normal -0.222528 0.974926 0
    outer loop
      vertex 57.755 73.5501 9
      vertex 59.447 73.9363 0
      vertex 57.755 73.5501 0
    endloop
  endfacet
  facet normal -0.900977 0.433866 0
    outer loop
      vertex 59.447 73.9363 0
      vertex 60.2 75.5 9
      vertex 60.2 75.5 0
    endloop
  endfacet
  facet normal -0.900977 0.433866 0
    outer loop
      vertex 60.2 75.5 9
      vertex 59.447 73.9363 0
      vertex 59.447 73.9363 9
    endloop
  endfacet
  facet normal 0.623493 0.781829 -0
    outer loop
      vertex 57.755 73.5501 0
      vertex 56.3981 74.6322 9
      vertex 57.755 73.5501 9
    endloop
  endfacet
  facet normal 0.623493 0.781829 0
    outer loop
      vertex 56.3981 74.6322 9
      vertex 57.755 73.5501 0
      vertex 56.3981 74.6322 0
    endloop
  endfacet
  facet normal 0.623493 -0.781829 0
    outer loop
      vertex 56.3981 76.3678 0
      vertex 57.755 77.4499 9
      vertex 56.3981 76.3678 9
    endloop
  endfacet
  facet normal 0.623493 -0.781829 0
    outer loop
      vertex 57.755 77.4499 9
      vertex 56.3981 76.3678 0
      vertex 57.755 77.4499 0
    endloop
  endfacet
  facet normal -0.222528 -0.974926 0
    outer loop
      vertex 57.755 77.4499 0
      vertex 59.447 77.0637 9
      vertex 57.755 77.4499 9
    endloop
  endfacet
  facet normal -0.222528 -0.974926 -0
    outer loop
      vertex 59.447 77.0637 9
      vertex 57.755 77.4499 0
      vertex 59.447 77.0637 0
    endloop
  endfacet
  facet normal 1 -0 0
    outer loop
      vertex 56.3981 74.6322 9
      vertex 56.3981 76.3678 0
      vertex 56.3981 76.3678 9
    endloop
  endfacet
  facet normal 1 0 0
    outer loop
      vertex 56.3981 76.3678 0
      vertex 56.3981 74.6322 9
      vertex 56.3981 74.6322 0
    endloop
  endfacet
  facet normal -0.900977 -0.433866 0
    outer loop
      vertex 60.2 75.5 0
      vertex 59.447 77.0637 9
      vertex 59.447 77.0637 0
    endloop
  endfacet
  facet normal -0.900977 -0.433866 0
    outer loop
      vertex 59.447 77.0637 9
      vertex 60.2 75.5 0
      vertex 60.2 75.5 9
    endloop
  endfacet
  facet normal -0.222528 0.974926 0
    outer loop
      vertex 113.447 73.9363 0
      vertex 111.755 73.5501 9
      vertex 113.447 73.9363 9
    endloop
  endfacet
  facet normal -0.222528 0.974926 0
    outer loop
      vertex 111.755 73.5501 9
      vertex 113.447 73.9363 0
      vertex 111.755 73.5501 0
    endloop
  endfacet
  facet normal -0.900977 0.433866 0
    outer loop
      vertex 113.447 73.9363 0
      vertex 114.2 75.5 9
      vertex 114.2 75.5 0
    endloop
  endfacet
  facet normal -0.900977 0.433866 0
    outer loop
      vertex 114.2 75.5 9
      vertex 113.447 73.9363 0
      vertex 113.447 73.9363 9
    endloop
  endfacet
  facet normal 0.623465 0.781852 -0
    outer loop
      vertex 111.755 73.5501 0
      vertex 110.398 74.6322 9
      vertex 111.755 73.5501 9
    endloop
  endfacet
  facet normal 0.623465 0.781852 0
    outer loop
      vertex 110.398 74.6322 9
      vertex 111.755 73.5501 0
      vertex 110.398 74.6322 0
    endloop
  endfacet
  facet normal 0.623465 -0.781852 0
    outer loop
      vertex 110.398 76.3678 0
      vertex 111.755 77.4499 9
      vertex 110.398 76.3678 9
    endloop
  endfacet
  facet normal 0.623465 -0.781852 0
    outer loop
      vertex 111.755 77.4499 9
      vertex 110.398 76.3678 0
      vertex 111.755 77.4499 0
    endloop
  endfacet
  facet normal -0.222528 -0.974926 0
    outer loop
      vertex 111.755 77.4499 0
      vertex 113.447 77.0637 9
      vertex 111.755 77.4499 9
    endloop
  endfacet
  facet normal -0.222528 -0.974926 -0
    outer loop
      vertex 113.447 77.0637 9
      vertex 111.755 77.4499 0
      vertex 113.447 77.0637 0
    endloop
  endfacet
  facet normal 1 -0 0
    outer loop
      vertex 110.398 74.6322 9
      vertex 110.398 76.3678 0
      vertex 110.398 76.3678 9
    endloop
  endfacet
  facet normal 1 0 0
    outer loop
      vertex 110.398 76.3678 0
      vertex 110.398 74.6322 9
      vertex 110.398 74.6322 0
    endloop
  endfacet
  facet normal -0.900977 -0.433866 0
    outer loop
      vertex 114.2 75.5 0
      vertex 113.447 77.0637 9
      vertex 113.447 77.0637 0
    endloop
  endfacet
  facet normal -0.900977 -0.433866 0
    outer loop
      vertex 113.447 77.0637 9
      vertex 114.2 75.5 0
      vertex 114.2 75.5 9
    endloop
  endfacet
endsolid OpenSCAD_Model
