solid OpenSCAD_Model
  facet normal 1 -0 0
    outer loop
      vertex 8 -9 2
      vertex 8 27 0
      vertex 8 27 2
    endloop
  endfacet
  facet normal 1 0 0
    outer loop
      vertex 8 27 0
      vertex 8 -9 2
      vertex 8 -9 0
    endloop
  endfacet
  facet normal 0 0 1
    outer loop
      vertex 6 0 2
      vertex 8 27 2
      vertex 6 27 2
    endloop
  endfacet
  facet normal 0 0 1
    outer loop
      vertex 8 27 2
      vertex 6 0 2
      vertex 8 -9 2
    endloop
  endfacet
  facet normal 0 0 1
    outer loop
      vertex 8 -9 2
      vertex 6 0 2
      vertex 6 -9 2
    endloop
  endfacet
  facet normal -0 0 1
    outer loop
      vertex 0 27 2
      vertex 2 0 2
      vertex 2 27 2
    endloop
  endfacet
  facet normal 0 0 1
    outer loop
      vertex 0 -9 2
      vertex 2 0 2
      vertex 0 27 2
    endloop
  endfacet
  facet normal 0 0 1
    outer loop
      vertex 2 0 2
      vertex 0 -9 2
      vertex 2 -9 2
    endloop
  endfacet
  facet normal -0 0 1
    outer loop
      vertex 3 27 2
      vertex 5 0 2
      vertex 5 27 2
    endloop
  endfacet
  facet normal 0 0 1
    outer loop
      vertex 5 0 2
      vertex 3 27 2
      vertex 3 0 2
    endloop
  endfacet
  facet normal 0 0 -1
    outer loop
      vertex 2 -9 0
      vertex 0 -9 0
      vertex 2 0 0
    endloop
  endfacet
  facet normal 0 0 -1
    outer loop
      vertex 6 0 0
      vertex 8 -9 0
      vertex 6 -9 0
    endloop
  endfacet
  facet normal 0 0 -1
    outer loop
      vertex 8 -9 0
      vertex 6 0 0
      vertex 8 27 0
    endloop
  endfacet
  facet normal 0 0 -1
    outer loop
      vertex 2 0 0
      vertex 8 27 0
      vertex 6 0 0
    endloop
  endfacet
  facet normal 0 0 -1
    outer loop
      vertex 0 27 0
      vertex 2 0 0
      vertex 0 -9 0
    endloop
  endfacet
  facet normal 0 0 -1
    outer loop
      vertex 2 0 0
      vertex 0 27 0
      vertex 8 27 0
    endloop
  endfacet
  facet normal -1 0 0
    outer loop
      vertex 0 -9 0
      vertex 0 27 2
      vertex 0 27 0
    endloop
  endfacet
  facet normal -1 -0 0
    outer loop
      vertex 0 27 2
      vertex 0 -9 0
      vertex 0 -9 2
    endloop
  endfacet
  facet normal 0 1 0
    outer loop
      vertex 8 27 2
      vertex 6 27 1
      vertex 6 27 2
    endloop
  endfacet
  facet normal 0 1 0
    outer loop
      vertex 8 27 0
      vertex 5 27 1
      vertex 6 27 1
    endloop
  endfacet
  facet normal 0 1 0
    outer loop
      vertex 5 27 1
      vertex 8 27 0
      vertex 3 27 1
    endloop
  endfacet
  facet normal 0 1 0
    outer loop
      vertex 0 27 0
      vertex 3 27 1
      vertex 8 27 0
    endloop
  endfacet
  facet normal 0 1 -0
    outer loop
      vertex 8 27 0
      vertex 6 27 1
      vertex 8 27 2
    endloop
  endfacet
  facet normal 0 1 -0
    outer loop
      vertex 5 27 1
      vertex 3 27 2
      vertex 5 27 2
    endloop
  endfacet
  facet normal 0 1 0
    outer loop
      vertex 3 27 2
      vertex 5 27 1
      vertex 3 27 1
    endloop
  endfacet
  facet normal 0 1 -0
    outer loop
      vertex 2 27 1
      vertex 0 27 2
      vertex 2 27 2
    endloop
  endfacet
  facet normal 0 1 0
    outer loop
      vertex 2 27 1
      vertex 0 27 0
      vertex 0 27 2
    endloop
  endfacet
  facet normal 0 1 0
    outer loop
      vertex 3 27 1
      vertex 0 27 0
      vertex 2 27 1
    endloop
  endfacet
  facet normal 0 -1 0
    outer loop
      vertex 2 0 0
      vertex 3 0 1
      vertex 2 0 1
    endloop
  endfacet
  facet normal 0 -1 -0
    outer loop
      vertex 3 0 1
      vertex 2 0 0
      vertex 5 0 1
    endloop
  endfacet
  facet normal 0 -1 0
    outer loop
      vertex 6 0 0
      vertex 5 0 1
      vertex 2 0 0
    endloop
  endfacet
  facet normal 0 -1 0
    outer loop
      vertex 5 0 1
      vertex 6 0 0
      vertex 6 0 1
    endloop
  endfacet
  facet normal 0 -1 0
    outer loop
      vertex 3 0 1
      vertex 5 0 2
      vertex 3 0 2
    endloop
  endfacet
  facet normal 0 -1 -0
    outer loop
      vertex 5 0 2
      vertex 3 0 1
      vertex 5 0 1
    endloop
  endfacet
  facet normal -1 0 0
    outer loop
      vertex 3 0 1
      vertex 3 27 2
      vertex 3 27 1
    endloop
  endfacet
  facet normal -1 -0 0
    outer loop
      vertex 3 27 2
      vertex 3 0 1
      vertex 3 0 2
    endloop
  endfacet
  facet normal -0 0 1
    outer loop
      vertex 2 27 1
      vertex 3 0 1
      vertex 3 27 1
    endloop
  endfacet
  facet normal 0 0 1
    outer loop
      vertex 3 0 1
      vertex 2 27 1
      vertex 2 0 1
    endloop
  endfacet
  facet normal 1 -0 0
    outer loop
      vertex 2 0 2
      vertex 2 27 1
      vertex 2 27 2
    endloop
  endfacet
  facet normal 1 0 0
    outer loop
      vertex 2 27 1
      vertex 2 0 2
      vertex 2 0 1
    endloop
  endfacet
  facet normal -1 0 0
    outer loop
      vertex 6 0 1
      vertex 6 27 2
      vertex 6 27 1
    endloop
  endfacet
  facet normal -1 -0 0
    outer loop
      vertex 6 27 2
      vertex 6 0 1
      vertex 6 0 2
    endloop
  endfacet
  facet normal -0 0 1
    outer loop
      vertex 5 27 1
      vertex 6 0 1
      vertex 6 27 1
    endloop
  endfacet
  facet normal 0 0 1
    outer loop
      vertex 6 0 1
      vertex 5 27 1
      vertex 5 0 1
    endloop
  endfacet
  facet normal 1 -0 0
    outer loop
      vertex 5 0 2
      vertex 5 27 1
      vertex 5 27 2
    endloop
  endfacet
  facet normal 1 0 0
    outer loop
      vertex 5 27 1
      vertex 5 0 2
      vertex 5 0 1
    endloop
  endfacet
  facet normal 1 -0 0
    outer loop
      vertex 2 -9 2
      vertex 2 0 1
      vertex 2 0 2
    endloop
  endfacet
  facet normal 1 0 0
    outer loop
      vertex 2 -9 0
      vertex 2 0 1
      vertex 2 -9 2
    endloop
  endfacet
  facet normal 1 0 0
    outer loop
      vertex 2 0 1
      vertex 2 -9 0
      vertex 2 0 0
    endloop
  endfacet
  facet normal 0 -1 0
    outer loop
      vertex 0 -9 0
      vertex 2 -9 2
      vertex 0 -9 2
    endloop
  endfacet
  facet normal 0 -1 -0
    outer loop
      vertex 2 -9 2
      vertex 0 -9 0
      vertex 2 -9 0
    endloop
  endfacet
  facet normal -1 0 0
    outer loop
      vertex 6 -9 0
      vertex 6 0 1
      vertex 6 0 0
    endloop
  endfacet
  facet normal -1 0 0
    outer loop
      vertex 6 -9 2
      vertex 6 0 1
      vertex 6 -9 0
    endloop
  endfacet
  facet normal -1 0 0
    outer loop
      vertex 6 0 1
      vertex 6 -9 2
      vertex 6 0 2
    endloop
  endfacet
  facet normal 0 -1 0
    outer loop
      vertex 6 -9 0
      vertex 8 -9 2
      vertex 6 -9 2
    endloop
  endfacet
  facet normal 0 -1 -0
    outer loop
      vertex 8 -9 2
      vertex 6 -9 0
      vertex 8 -9 0
    endloop
  endfacet
endsolid OpenSCAD_Model
