solid OpenSCAD_Model
  facet normal 1 -0 0
    outer loop
      vertex 55 0 3
      vertex 55 25 0
      vertex 55 25 3
    endloop
  endfacet
  facet normal 1 0 0
    outer loop
      vertex 55 25 0
      vertex 55 0 3
      vertex 55 0 0
    endloop
  endfacet
  facet normal 0 0 1
    outer loop
      vertex 55 25 3
      vertex 54 24 3
      vertex 55 0 3
    endloop
  endfacet
  facet normal 0 0 1
    outer loop
      vertex 55 25 3
      vertex 1 24 3
      vertex 54 24 3
    endloop
  endfacet
  facet normal 0 0 1
    outer loop
      vertex 1 24 3
      vertex 0 25 3
      vertex 1 1 3
    endloop
  endfacet
  facet normal -0 0 1
    outer loop
      vertex 0 25 3
      vertex 1 24 3
      vertex 55 25 3
    endloop
  endfacet
  facet normal -0 0 1
    outer loop
      vertex 54 1 3
      vertex 55 0 3
      vertex 54 24 3
    endloop
  endfacet
  facet normal 0 0 1
    outer loop
      vertex 54 1 3
      vertex 48 0 3
      vertex 55 0 3
    endloop
  endfacet
  facet normal 0 0 1
    outer loop
      vertex 48 0 3
      vertex 45 0 3
      vertex 48 -10 3
    endloop
  endfacet
  facet normal 0 0 1
    outer loop
      vertex 54 1 3
      vertex 45 0 3
      vertex 48 0 3
    endloop
  endfacet
  facet normal 0 0 1
    outer loop
      vertex 54 1 3
      vertex 10 0 3
      vertex 45 0 3
    endloop
  endfacet
  facet normal 0 0 1
    outer loop
      vertex 10 0 3
      vertex 7 0 3
      vertex 10 -10 3
    endloop
  endfacet
  facet normal -0 0 1
    outer loop
      vertex 1 1 3
      vertex 10 0 3
      vertex 54 1 3
    endloop
  endfacet
  facet normal 0 0 1
    outer loop
      vertex 10 0 3
      vertex 1 1 3
      vertex 7 0 3
    endloop
  endfacet
  facet normal 0 0 1
    outer loop
      vertex 1 1 3
      vertex 0 0 3
      vertex 7 0 3
    endloop
  endfacet
  facet normal 0 0 1
    outer loop
      vertex 0 0 3
      vertex 1 1 3
      vertex 0 25 3
    endloop
  endfacet
  facet normal 0 0 1
    outer loop
      vertex 48 -10 3
      vertex 45 0 3
      vertex 45 -10 3
    endloop
  endfacet
  facet normal 0 0 1
    outer loop
      vertex 10 -10 3
      vertex 7 0 3
      vertex 7 -10 3
    endloop
  endfacet
  facet normal 0 0 -1
    outer loop
      vertex 10 -10 0
      vertex 7 -10 0
      vertex 10 0 0
    endloop
  endfacet
  facet normal 0 0 -1
    outer loop
      vertex 48 -10 0
      vertex 45 -10 0
      vertex 48 0 0
    endloop
  endfacet
  facet normal 0 0 -1
    outer loop
      vertex 48 0 0
      vertex 55 25 0
      vertex 55 0 0
    endloop
  endfacet
  facet normal 0 0 -1
    outer loop
      vertex 45 0 0
      vertex 48 0 0
      vertex 45 -10 0
    endloop
  endfacet
  facet normal 0 0 -1
    outer loop
      vertex 48 0 0
      vertex 45 0 0
      vertex 55 25 0
    endloop
  endfacet
  facet normal 0 0 -1
    outer loop
      vertex 10 0 0
      vertex 55 25 0
      vertex 45 0 0
    endloop
  endfacet
  facet normal 0 0 -1
    outer loop
      vertex 7 0 0
      vertex 10 0 0
      vertex 7 -10 0
    endloop
  endfacet
  facet normal 0 0 -1
    outer loop
      vertex 0 25 0
      vertex 10 0 0
      vertex 7 0 0
    endloop
  endfacet
  facet normal 0 0 -1
    outer loop
      vertex 0 25 0
      vertex 7 0 0
      vertex 0 0 0
    endloop
  endfacet
  facet normal 0 0 -1
    outer loop
      vertex 10 0 0
      vertex 0 25 0
      vertex 55 25 0
    endloop
  endfacet
  facet normal -1 0 0
    outer loop
      vertex 0 0 0
      vertex 0 25 3
      vertex 0 25 0
    endloop
  endfacet
  facet normal -1 -0 0
    outer loop
      vertex 0 25 3
      vertex 0 0 0
      vertex 0 0 3
    endloop
  endfacet
  facet normal 0 1 -0
    outer loop
      vertex 55 25 0
      vertex 0 25 3
      vertex 55 25 3
    endloop
  endfacet
  facet normal 0 1 0
    outer loop
      vertex 0 25 3
      vertex 55 25 0
      vertex 0 25 0
    endloop
  endfacet
  facet normal 0 -1 0
    outer loop
      vertex 10 0 0
      vertex 45 0 3
      vertex 10 0 3
    endloop
  endfacet
  facet normal 0 -1 -0
    outer loop
      vertex 45 0 3
      vertex 10 0 0
      vertex 45 0 0
    endloop
  endfacet
  facet normal 0 -1 0
    outer loop
      vertex 48 0 0
      vertex 55 0 3
      vertex 48 0 3
    endloop
  endfacet
  facet normal 0 -1 -0
    outer loop
      vertex 55 0 3
      vertex 48 0 0
      vertex 55 0 0
    endloop
  endfacet
  facet normal 0 -1 0
    outer loop
      vertex 0 0 0
      vertex 7 0 3
      vertex 0 0 3
    endloop
  endfacet
  facet normal 0 -1 -0
    outer loop
      vertex 7 0 3
      vertex 0 0 0
      vertex 7 0 0
    endloop
  endfacet
  facet normal -1 0 0
    outer loop
      vertex 54 1 2
      vertex 54 24 3
      vertex 54 24 2
    endloop
  endfacet
  facet normal -1 -0 0
    outer loop
      vertex 54 24 3
      vertex 54 1 2
      vertex 54 1 3
    endloop
  endfacet
  facet normal -0 0 1
    outer loop
      vertex 1 24 2
      vertex 54 1 2
      vertex 54 24 2
    endloop
  endfacet
  facet normal 0 0 1
    outer loop
      vertex 54 1 2
      vertex 1 24 2
      vertex 1 1 2
    endloop
  endfacet
  facet normal 1 -0 0
    outer loop
      vertex 1 1 3
      vertex 1 24 2
      vertex 1 24 3
    endloop
  endfacet
  facet normal 1 0 0
    outer loop
      vertex 1 24 2
      vertex 1 1 3
      vertex 1 1 2
    endloop
  endfacet
  facet normal 0 -1 0
    outer loop
      vertex 1 24 2
      vertex 54 24 3
      vertex 1 24 3
    endloop
  endfacet
  facet normal 0 -1 -0
    outer loop
      vertex 54 24 3
      vertex 1 24 2
      vertex 54 24 2
    endloop
  endfacet
  facet normal 0 1 -0
    outer loop
      vertex 54 1 2
      vertex 1 1 3
      vertex 54 1 3
    endloop
  endfacet
  facet normal 0 1 0
    outer loop
      vertex 1 1 3
      vertex 54 1 2
      vertex 1 1 2
    endloop
  endfacet
  facet normal 1 -0 0
    outer loop
      vertex 10 -10 3
      vertex 10 0 0
      vertex 10 0 3
    endloop
  endfacet
  facet normal 1 0 0
    outer loop
      vertex 10 0 0
      vertex 10 -10 3
      vertex 10 -10 0
    endloop
  endfacet
  facet normal -1 0 0
    outer loop
      vertex 7 -10 0
      vertex 7 0 3
      vertex 7 0 0
    endloop
  endfacet
  facet normal -1 -0 0
    outer loop
      vertex 7 0 3
      vertex 7 -10 0
      vertex 7 -10 3
    endloop
  endfacet
  facet normal 0 -1 0
    outer loop
      vertex 7 -10 0
      vertex 10 -10 3
      vertex 7 -10 3
    endloop
  endfacet
  facet normal 0 -1 -0
    outer loop
      vertex 10 -10 3
      vertex 7 -10 0
      vertex 10 -10 0
    endloop
  endfacet
  facet normal 1 -0 0
    outer loop
      vertex 48 -10 3
      vertex 48 0 0
      vertex 48 0 3
    endloop
  endfacet
  facet normal 1 0 0
    outer loop
      vertex 48 0 0
      vertex 48 -10 3
      vertex 48 -10 0
    endloop
  endfacet
  facet normal -1 0 0
    outer loop
      vertex 45 -10 0
      vertex 45 0 3
      vertex 45 0 0
    endloop
  endfacet
  facet normal -1 -0 0
    outer loop
      vertex 45 0 3
      vertex 45 -10 0
      vertex 45 -10 3
    endloop
  endfacet
  facet normal 0 -1 0
    outer loop
      vertex 45 -10 0
      vertex 48 -10 3
      vertex 45 -10 3
    endloop
  endfacet
  facet normal 0 -1 -0
    outer loop
      vertex 48 -10 3
      vertex 45 -10 0
      vertex 48 -10 0
    endloop
  endfacet
endsolid OpenSCAD_Model
